<svg xmlns="http://www.w3.org/2000/svg" viewBox="0 0 41.82 41.82"><defs><style>.cls-1{fill:#4d4d4d;}</style></defs><title>instagram-icon</title><g id="Camada_2" data-name="Camada 2"><g id="Contenido"><path class="cls-1" d="M20.91,41.82A20.91,20.91,0,1,1,41.82,20.91,20.93,20.93,0,0,1,20.91,41.82ZM20.91,2A18.91,18.91,0,1,0,39.82,20.91,18.93,18.93,0,0,0,20.91,2Z"/><path class="cls-1" d="M26.31,34.35H15.52a8.7,8.7,0,0,1-8.69-8.69v-9.5a8.7,8.7,0,0,1,8.69-8.69H26.31A8.7,8.7,0,0,1,35,16.16v9.5A8.7,8.7,0,0,1,26.31,34.35ZM15.52,9.4a6.76,6.76,0,0,0-6.76,6.76v9.5a6.76,6.76,0,0,0,6.76,6.76H26.31a6.76,6.76,0,0,0,6.75-6.76v-9.5A6.76,6.76,0,0,0,26.31,9.4Z"/><path class="cls-1" d="M20.91,28.64a7.73,7.73,0,1,1,7.73-7.73A7.74,7.74,0,0,1,20.91,28.64Zm0-13.53a5.8,5.8,0,1,0,5.8,5.8A5.8,5.8,0,0,0,20.91,15.11Z"/><path class="cls-1" d="M30.13,13.42a1.61,1.61,0,1,1-1.61-1.61A1.61,1.61,0,0,1,30.13,13.42Z"/></g></g></svg>