<?xml version="1.0" standalone="no"?>
<!DOCTYPE svg PUBLIC "-//W3C//DTD SVG 20010904//EN"
 "http://www.w3.org/TR/2001/REC-SVG-20010904/DTD/svg10.dtd">
<svg version="1.0" xmlns="http://www.w3.org/2000/svg"
 width="260.000000pt" height="260.000000pt" viewBox="0 0 260.000000 260.000000"
 preserveAspectRatio="xMidYMid meet">
<metadata>
Created by potrace 1.11, written by Peter Selinger 2001-2013
</metadata>
<g transform="translate(0.000000,260.000000) scale(0.100000,-0.100000)"
fill="#000000" stroke="none">
<path d="M705 2523 c24 -60 37 -134 33 -198 -4 -56 -14 -90 -52 -172 -53 -115
-71 -198 -62 -277 8 -64 51 -159 95 -208 17 -20 31 -38 31 -42 0 -3 -20 -6
-44 -6 -41 0 -45 -2 -79 -54 -43 -65 -121 -135 -213 -192 l-69 -42 3 -63 c2
-72 32 -204 67 -300 98 -272 286 -513 560 -718 97 -73 213 -147 285 -181 l46
-22 103 59 c155 90 293 195 421 323 233 231 365 474 414 759 25 145 26 140
-54 185 -89 50 -174 126 -217 193 -32 51 -35 53 -78 53 -25 0 -45 3 -45 6 0 4
14 22 31 42 18 20 46 66 63 102 28 58 31 74 30 155 0 94 -2 100 -75 265 -31
68 -34 84 -33 165 1 58 7 106 18 134 9 24 15 46 13 48 -2 2 -28 -8 -58 -21
-111 -51 -191 -52 -379 -7 -47 12 -118 21 -160 21 -42 0 -113 -9 -160 -21
-187 -45 -268 -44 -379 7 -64 29 -65 29 -56 7z m768 -69 c93 -21 128 -25 207
-21 52 3 105 8 117 12 22 7 22 6 16 -58 -7 -82 7 -143 65 -272 42 -93 46 -106
46 -185 1 -72 -3 -94 -26 -142 -14 -31 -45 -76 -67 -101 -64 -69 -53 -107 31
-107 43 0 49 -3 64 -32 28 -54 122 -145 205 -198 l79 -50 -6 -48 c-10 -82 -52
-245 -82 -318 -115 -283 -373 -563 -699 -762 -48 -29 -97 -55 -110 -58 -30 -8
-158 64 -296 167 -330 245 -541 549 -601 866 -31 164 -35 146 53 203 83 53
177 144 205 198 15 29 21 32 64 32 84 0 95 38 31 107 -52 57 -87 134 -95 209
-7 70 4 118 55 234 51 113 65 178 58 257 -6 64 -6 65 16 58 12 -4 67 -9 122
-11 82 -4 118 0 200 20 131 32 210 32 348 0z"/>
<path d="M1145 2422 c-73 -19 -150 -50 -186 -75 -20 -14 -18 -16 29 -26 74
-16 148 -46 236 -96 l79 -45 46 29 c69 45 168 88 241 107 36 9 66 17 68 18 6
6 -99 56 -158 76 -92 31 -260 36 -355 12z"/>
<path d="M855 2223 c0 -52 -5 -67 -47 -138 -44 -73 -48 -84 -48 -146 0 -94 28
-145 100 -182 49 -26 63 -28 130 -25 56 3 89 11 129 31 l54 28 -6 -46 c-8 -53
-39 -119 -75 -158 -34 -35 -30 -38 104 -66 l104 -22 104 22 c58 12 110 25 117
30 9 5 5 16 -15 39 -39 47 -65 103 -73 155 l-6 46 54 -28 c40 -20 73 -28 129
-31 67 -3 81 -1 130 25 63 32 95 79 105 152 7 59 -5 97 -57 185 -38 62 -43 77
-43 129 l1 59 -65 -6 c-119 -12 -232 -65 -332 -154 l-49 -44 -56 51 c-98 87
-249 150 -359 151 -31 0 -31 0 -30 -57z m255 -141 c57 -42 74 -129 36 -187
-36 -55 -134 -75 -194 -40 -67 40 -84 137 -35 196 15 17 41 38 58 45 37 17
101 10 135 -14z m520 12 c93 -37 111 -169 31 -231 -49 -38 -131 -34 -184 8
-61 47 -58 155 6 203 51 38 88 43 147 20z"/>
<path d="M815 1560 c-3 -5 -17 -10 -29 -10 -13 0 -29 -6 -35 -14 -15 -18 -37
-11 286 -85 l263 -60 262 60 c322 73 302 67 287 85 -6 8 -20 14 -30 14 -11 0
-28 5 -38 11 -14 10 -65 2 -250 -39 l-232 -52 -221 50 c-233 53 -253 56 -263
40z"/>
<path d="M684 1449 c-31 -46 -113 -116 -180 -155 -40 -24 -42 -27 -37 -62 38
-263 170 -510 391 -729 95 -95 258 -220 367 -282 l75 -43 57 32 c175 99 376
264 485 399 167 207 261 407 292 618 l6 42 -59 35 c-62 38 -144 111 -178 160
l-20 28 -291 -66 -291 -67 -287 65 c-158 37 -291 66 -294 66 -4 0 -20 -19 -36
-41z m576 -239 l0 -100 -40 0 -40 0 0 -211 c0 -205 5 -242 34 -261 6 -4 46 -8
88 -8 120 0 118 -6 118 262 l0 218 -40 0 -40 0 0 100 0 100 220 0 220 0 0
-100 0 -100 -40 0 -40 0 0 -243 0 -244 -114 -111 -114 -112 -171 0 -170 0
-115 111 -116 111 0 244 0 244 -40 0 -40 0 0 100 0 100 220 0 220 0 0 -100z"/>
</g>
</svg>
