<svg xmlns="http://www.w3.org/2000/svg" viewBox="0 0 26.14 25.59"><defs><style>.cls-1{fill:#c4c4c4;}</style></defs><title>ajustes</title><g id="Camada_2" data-name="Camada 2"><g id="Overs"><path class="cls-1" d="M22.55,9.86l-.66-1.57a29.43,29.43,0,0,0,1.4-3.59l-2-2a29.07,29.07,0,0,0-3.6,1.45l-1.6-.65A27.37,27.37,0,0,0,14.44,0H11.58a26.63,26.63,0,0,0-1.51,3.52l-1.6.65A28.43,28.43,0,0,0,4.8,2.8l-2,2A26.68,26.68,0,0,0,4.25,8.31L3.59,9.88A29.42,29.42,0,0,0,0,11.45v2.81a28.77,28.77,0,0,0,3.6,1.48l.65,1.56a29.43,29.43,0,0,0-1.4,3.59l2,2a28.17,28.17,0,0,0,3.6-1.45l1.6.65a27.37,27.37,0,0,0,1.61,3.51h2.86a26.63,26.63,0,0,0,1.51-3.52l1.6-.64a30,30,0,0,0,3.67,1.37l2-2a26.68,26.68,0,0,0-1.48-3.53l.66-1.57a29.42,29.42,0,0,0,3.59-1.57V11.33A28.56,28.56,0,0,0,22.55,9.86Zm-5.29,2.93A4.19,4.19,0,1,1,13.07,8.7,4.15,4.15,0,0,1,17.26,12.79Z"/></g></g></svg>