<svg xmlns="http://www.w3.org/2000/svg" viewBox="0 0 24 24"><defs><style>.cls-1{fill:#c4c4c4;}</style></defs><title>ayuda</title><g id="Camada_2" data-name="Camada 2"><g id="Overs"><path class="cls-1" d="M12,0A12,12,0,1,0,24,12,12,12,0,0,0,12,0Zm1.22,17.82H10.88V15.56h2.34ZM14,12.54a1.89,1.89,0,0,0-1,2H10.94a3.14,3.14,0,0,1,1.64-3.25,1.92,1.92,0,0,0,1-1.58A1.45,1.45,0,0,0,12,8.07c-1.44,0-1.65,1.09-1.73,1.84v0H8a3.57,3.57,0,0,1,3.84-3.75c1,0,4.1.27,4.1,3.41C16,10.89,15.27,11.66,14,12.54Z"/></g></g></svg>