<svg xmlns="http://www.w3.org/2000/svg" viewBox="0 0 62 59.69"><defs><style>.cls-1{fill:#656565;}</style></defs><title>Asset 5</title><g id="Layer_2" data-name="Layer 2"><g id="Menu"><path class="cls-1" d="M53.67,41.5v8.29A2.21,2.21,0,0,1,51.46,52H10.54a2.21,2.21,0,0,1-2.21-2.21V41.5a2.19,2.19,0,0,0-2.2-2.2H2.21A2.2,2.2,0,0,0,0,41.5v16a2.2,2.2,0,0,0,2.21,2.2H59.79A2.2,2.2,0,0,0,62,57.49v-16a2.2,2.2,0,0,0-2.21-2.2H55.87A2.19,2.19,0,0,0,53.67,41.5Z"/><path class="cls-1" d="M41,24.38l-6.22,7.09V1.16A1.15,1.15,0,0,0,33.6,0H28.91a1.16,1.16,0,0,0-1.16,1.16V31.5L21,23.88a1.15,1.15,0,0,0-1.65-.09l-2.56,2.39a1.15,1.15,0,0,0-.07,1.61L30.38,43a1.16,1.16,0,0,0,1.73,0L45.26,28.29a1.16,1.16,0,0,0-.08-1.61L42.62,24.3A1.14,1.14,0,0,0,41,24.38Z"/></g></g></svg>