<svg xmlns="http://www.w3.org/2000/svg" viewBox="0 0 64.7 44.69"><defs><style>.cls-1{fill:#656565;}</style></defs><title>Asset 2</title><g id="Layer_2" data-name="Layer 2"><g id="Menu"><path class="cls-1" d="M32.56,14.2a8.14,8.14,0,1,0,8.14,8.14A8.15,8.15,0,0,0,32.56,14.2Z"/><path class="cls-1" d="M14.22,4,10.67.46A1.57,1.57,0,0,0,8.39.53a32.55,32.55,0,0,0,0,43.63,1.57,1.57,0,0,0,2.28.07l3.55-3.55a1.55,1.55,0,0,0,.08-2.12,24.43,24.43,0,0,1,0-32.43A1.55,1.55,0,0,0,14.22,4Z"/><path class="cls-1" d="M17,9.21a20.35,20.35,0,0,0,0,26.27,1.57,1.57,0,0,0,2.31.09L22.89,32a1.58,1.58,0,0,0,.1-2.1,12.2,12.2,0,0,1,0-15.16,1.56,1.56,0,0,0-.1-2.09L19.33,9.11A1.57,1.57,0,0,0,17,9.21Z"/><path class="cls-1" d="M54,.46,50.48,4a1.55,1.55,0,0,0-.08,2.12,24.41,24.41,0,0,1,0,32.43,1.55,1.55,0,0,0,.08,2.12L54,44.23a1.57,1.57,0,0,0,2.28-.07,32.56,32.56,0,0,0,0-43.63A1.58,1.58,0,0,0,54,.46Z"/><path class="cls-1" d="M45.37,9.11l-3.56,3.56a1.57,1.57,0,0,0-.1,2.09,12.2,12.2,0,0,1,0,15.16,1.59,1.59,0,0,0,.1,2.1l3.56,3.55a1.57,1.57,0,0,0,2.31-.09,20.35,20.35,0,0,0,0-26.27A1.57,1.57,0,0,0,45.37,9.11Z"/></g></g></svg>