<svg xmlns="http://www.w3.org/2000/svg" viewBox="0 0 49.72 55.7"><defs><style>.cls-1{fill:#656565;}</style></defs><title>Asset 7</title><g id="Layer_2" data-name="Layer 2"><g id="Menu"><path class="cls-1" d="M24,0a27,27,0,0,0-2.83.25A24.85,24.85,0,0,0,5.15,40a.72.72,0,0,0,1.11,0l1.5-1.79a.71.71,0,0,0,0-.88A21,21,0,0,1,3.69,24.93a21.17,21.17,0,1,1,39,11.26.71.71,0,0,0,.08.88l1.62,1.68a.7.7,0,0,0,1.1-.09A24.84,24.84,0,0,0,24,0Z"/><path class="cls-1" d="M27.8,8.72A16.91,16.91,0,0,0,8,25.93a16.72,16.72,0,0,0,2,7.49.8.8,0,0,0,1.33.13l1.8-2.13a.81.81,0,0,0,.11-.86,12.47,12.47,0,0,1-1.11-4.77,12.73,12.73,0,1,1,24.64,4,.81.81,0,0,0,.17.85l1.93,2a.82.82,0,0,0,1.32-.22,16.66,16.66,0,0,0,1.55-7.61A17,17,0,0,0,27.8,8.72Z"/><path class="cls-1" d="M39.34,39.47A2.59,2.59,0,0,0,37.83,37a2.34,2.34,0,0,0-1.76.14h-.16a2,2,0,0,0-1.71-1.52,2.74,2.74,0,0,0-2.16.51,2.29,2.29,0,0,0-2.49-1.22A2.84,2.84,0,0,0,27.6,36l-.19-5.92c0-1.16-.12-2.33-.12-3.49a2.46,2.46,0,0,0-2.44-2.17,2.6,2.6,0,0,0-1.9.88,2.76,2.76,0,0,0-.54,2V38c-.05.24.1,5.71.1,5.71-.48-.46-1-1-1.49-1.48a7.72,7.72,0,0,0-4.45-2,2.16,2.16,0,0,0-1.57.33c-.11.09-.21.19-.32.3-.65.69-1.13,1.79-.63,2.56a2.79,2.79,0,0,0,1,.79,6.69,6.69,0,0,1,2,1.41c1.1,1.31,3.63,4.24,5.18,5.8.32.18,1,.82,1.32,1a12.19,12.19,0,0,1,2,1.42,9.93,9.93,0,0,0,1.48.82,9.72,9.72,0,0,0,5,1.07c2.1-.07,4,0,5.38-1.29h.08l0-.09a7,7,0,0,0,2.16-5.22c0-.5-.08-2.34-.09-2.68Z"/><path class="cls-1" d="M21.74,24.51a4,4,0,0,1,7,1.56,3.61,3.61,0,0,1,.12.94v2.57a5.85,5.85,0,0,0,1.88-4.8A5.87,5.87,0,0,0,19,25.16a5.94,5.94,0,0,0,1.85,4.32V27A4,4,0,0,1,21.74,24.51Z"/></g></g></svg>