<svg id="Camada_1" data-name="Camada 1" xmlns="http://www.w3.org/2000/svg" viewBox="0 0 35 44"><defs><style>.cls-1{fill:#fff;}.cls-2{fill:#100c08;}.cls-3{fill:#cb0520;}</style></defs><title>club</title><g id="Contenido"><path class="cls-1" d="M28.4.6s-2.3,2-10.9,2S6.6.7,6.6.7L.4,6.9a31,31,0,0,1,3.2,13s.9,18.6,14,23.7c13.1-5.3,13.8-23.8,13.8-23.8a31.72,31.72,0,0,1,3.1-13Z"/><path class="cls-2" d="M17.7,43.9l-.1-.1a18.37,18.37,0,0,1-7.9-6,28.93,28.93,0,0,1-4.3-8,42.39,42.39,0,0,1-2.1-10h0A31.23,31.23,0,0,0,.1,7L0,6.8,6.6.2l.2.2S9.1,2.2,17.4,2.2h.3C25.9,2.2,28.2.3,28.2.3l.2-.2.2.2L35,6.6l-.1.2a32,32,0,0,0-3.1,12.8h0a37.78,37.78,0,0,1-2,10,29.1,29.1,0,0,1-4.2,8,18.7,18.7,0,0,1-7.8,6ZM3.9,19.8A41.58,41.58,0,0,0,6,29.7c1.7,4.7,5.1,10.9,11.7,13.5,6.6-2.7,9.9-8.9,11.5-13.7a37.06,37.06,0,0,0,2-9.9,33.27,33.27,0,0,1,3-12.9L28.3,1c-.8.5-3.6,1.8-10.7,1.9h-.3c-7.1,0-9.9-1.3-10.7-1.8L.8,6.9A32.72,32.72,0,0,1,3.9,19.8Z"/><path class="cls-1" d="M17.6,3.9c-7.8,0-11-1.6-11-1.6L2.1,7A37.52,37.52,0,0,1,5,20a26.48,26.48,0,0,0,.7,4.8L17.8,3.9Z"/><path class="cls-1" d="M13.9,40a17.22,17.22,0,0,0,3.7,2.2c11.8-4.9,12.7-22.3,12.7-22.3a34.08,34.08,0,0,1,2.1-11L13.8,40.1Z"/><path class="cls-3" d="M19.3,3.9,6.2,26.5A26.75,26.75,0,0,0,13,39L32.1,6,28.3,2.1C28.3,2.3,25.8,3.6,19.3,3.9Z"/><path class="cls-1" d="M7.4,19.2a10.15,10.15,0,0,1,20.3-.1,10.15,10.15,0,0,1-20.3.1Z"/><path class="cls-2" d="M17.9,4l.2-.3H17c-5.6,0-8.7-.8-10.3-1.5H6.6L1.8,6.9V7A32.92,32.92,0,0,1,4.7,19.8h0a30.79,30.79,0,0,0,.8,5.3l.2-.1L17.9,4ZM5.7,24.3a34.69,34.69,0,0,1-.6-4.5h0A32.92,32.92,0,0,0,2.2,7L6.7,2.5C8.3,3.2,11.5,4,17,4h.5Z"/><path class="cls-2" d="M32.2,6.3l.1-.3h0l-4-4h-.1c-1.5.7-4.2,1.4-8.9,1.6h0L6,26.5H6a19,19,0,0,0,.9,2.9,24.38,24.38,0,0,0,6.2,9.9l.1-.2ZM7.1,29.4c-.3-1-.6-1.9-.9-2.8L19.4,4c4.6-.2,7.3-.9,8.8-1.6l3.7,3.7-19,32.8A26.21,26.21,0,0,1,7.1,29.4Z"/><path class="cls-2" d="M32.4,8.4h0l-.3-.1h0L13.9,39.8h0l-.1.2h0a16,16,0,0,0,3.8,2.3h.2c6-2.7,9.1-8.6,10.6-13a39.84,39.84,0,0,0,2-9.7,30.35,30.35,0,0,1,2-11.2ZM29.9,19.7A38.91,38.91,0,0,1,28,29.3c-1.5,4.4-4.5,10.1-10.4,12.8A25,25,0,0,1,14.1,40L31.6,9.8A33.3,33.3,0,0,0,29.9,19.7Z"/><path class="cls-2" d="M17.6,29.3h0A10.15,10.15,0,1,1,27.8,19.1,10.18,10.18,0,0,1,17.6,29.3Zm-.1-20A9.85,9.85,0,1,0,17.6,29v0a9.85,9.85,0,1,0-.1-19.7Z"/><path class="cls-1" d="M17.5,9.3A9.85,9.85,0,1,0,17.6,29v0a9.85,9.85,0,1,0-.1-19.7Z"/><path class="cls-2" d="M16.2,26.5a7.47,7.47,0,0,1,0-14.7V10.2a9,9,0,0,0,0,17.9Z"/><path class="cls-2" d="M11,19.2a6.33,6.33,0,0,0,2.8,5.3V22.2a4.59,4.59,0,0,1-1-2.5h2V25a8.8,8.8,0,0,0,1.5.5h0V12.8A6.53,6.53,0,0,0,11,19.2Zm3.7-.9H12.8a4.63,4.63,0,0,1,1.9-3Z"/><path class="cls-2" d="M23.4,12.2h0c-.4-.3-.9-.6-1.3-.9V27a14.31,14.31,0,0,0,1.5-1.1V24.3a7.54,7.54,0,0,0,1.1-10.7,5.84,5.84,0,0,0-1.3-1.4Zm.2,9.8V14.7A5.86,5.86,0,0,1,23.6,22Z"/><path class="cls-2" d="M19.9,27.9a8.8,8.8,0,0,0,1.5-.5l-1.3-4h0l.6-.6a2.2,2.2,0,0,0,.6-1.5V19.7h0V13.3c0-3.2-4.1-3.2-4.1-3.2V28.2a7.57,7.57,0,0,0,1.5-.1V24h0ZM18.6,12.1a1.4,1.4,0,0,1,1.2,1.4v7.3a1.3,1.3,0,0,1-1.2,1.3Z"/></g></svg>