<svg xmlns="http://www.w3.org/2000/svg" xmlns:xlink="http://www.w3.org/1999/xlink" viewBox="0 0 21.63 21.63"><defs><style>.cls-1{fill:none;}.cls-2{isolation:isolate;}.cls-3{fill:#d44639;}.cls-4{clip-path:url(#clip-path);}.cls-5{mix-blend-mode:multiply;fill:url(#linear-gradient);}.cls-6{fill:#fff;}</style><clipPath id="clip-path"><path class="cls-1" d="M21.53,11A10.5,10.5,0,1,1,11,.55,10.49,10.49,0,0,1,21.53,11Z"/></clipPath><linearGradient id="linear-gradient" x1="493.89" y1="80.64" x2="494.09" y2="107.39" gradientTransform="translate(-512.41 410.73) rotate(-45) scale(1.32 1)" gradientUnits="userSpaceOnUse"><stop offset="0" stop-color="#b3b3b3"/><stop offset="0.77" stop-color="#fff"/></linearGradient></defs><title>google</title><g class="cls-2"><g id="Camada_1" data-name="Camada 1"><rect class="cls-3" width="21.63" height="21.63" rx="4.44"/><g class="cls-4"><path class="cls-3" d="M21.53,11A10.5,10.5,0,1,1,11,.55,10.49,10.49,0,0,1,21.53,11Z"/><polygon class="cls-5" points="31.97 21.45 21.84 31.59 5.49 15.24 6.9 6.25 15.63 5.11 31.97 21.45"/><path class="cls-6" d="M18,9.59H11v2.49h4.16A4.45,4.45,0,0,1,6.51,10.6,4.5,4.5,0,0,1,11,6.07a4.39,4.39,0,0,1,2.84,1h.12l1.83-1.87A7,7,0,0,0,11,3.36,7.19,7.19,0,0,0,3.85,10.6,7.18,7.18,0,0,0,11,17.84a6.67,6.67,0,0,0,1.54-.17,6.84,6.84,0,0,0,2.8-1.33,7.13,7.13,0,0,0,2-2.38,7.55,7.55,0,0,0,.57-1.48A7.86,7.86,0,0,0,18,10.54Z"/></g></g></g></svg>