<svg id="google-icon" xmlns="http://www.w3.org/2000/svg" width="13.021" height="13.287" viewBox="0 0 13.021 13.287">
  <path id="Path_2820" data-name="Path 2820" d="M136.928,108.119a5.693,5.693,0,0,0-.14-1.358H130.55v2.465h3.661a3.247,3.247,0,0,1-1.358,2.155l-.012.083,1.972,1.528.137.014a6.5,6.5,0,0,0,1.978-4.887" transform="translate(-123.906 -101.328)" fill="#4285f4"/>
  <path id="Path_2821" data-name="Path 2821" d="M19.86,161.7a6.332,6.332,0,0,0,4.4-1.609l-2.1-1.624a3.932,3.932,0,0,1-2.3.664,4,4,0,0,1-3.78-2.761l-.078.007-2.051,1.587-.027.075A6.639,6.639,0,0,0,19.86,161.7" transform="translate(-13.216 -148.412)" fill="#34a853"/>
  <path id="Path_2822" data-name="Path 2822" d="M2.864,75.641a4.09,4.09,0,0,1-.221-1.314,4.3,4.3,0,0,1,.214-1.314l0-.088L.777,71.312l-.068.032a6.63,6.63,0,0,0,0,5.964l2.155-1.668" transform="translate(0 -67.683)" fill="#fbbc05"/>
  <path id="Path_2823" data-name="Path 2823" d="M19.86,2.569a3.682,3.682,0,0,1,2.569.989L24.3,1.727A6.383,6.383,0,0,0,19.86,0a6.639,6.639,0,0,0-5.935,3.661L16.073,5.33A4.016,4.016,0,0,1,19.86,2.569" transform="translate(-13.216)" fill="#eb4335"/>
</svg>
