<svg xmlns="http://www.w3.org/2000/svg" width="22.351" height="26.625" viewBox="0 0 22.351 26.625">
  <g id="noun-news-968052" transform="translate(-3.662 0.63)">
    <g id="Grupo_826" data-name="Grupo 826" transform="translate(3.662 -0.63)">
      <path id="Caminho_4254" data-name="Caminho 4254" d="M14.914-11.623A5.886,5.886,0,0,0,19.089-9.9H29.6a5.939,5.939,0,0,0,5.922-5.923,5.88,5.88,0,0,0-1.758-4.193,5.9,5.9,0,0,0-4.19-1.73H19.07A5.885,5.885,0,0,0,14.889-20a5.883,5.883,0,0,0-1.722,4.193A5.884,5.884,0,0,0,14.914-11.623ZM19.07-20.31H29.558a4.5,4.5,0,0,1,4.486,4.486v.081a4.419,4.419,0,0,1-1.336,3.137A4.414,4.414,0,0,1,29.6-11.338H19.07a4.5,4.5,0,0,1-4.486-4.486h0A4.493,4.493,0,0,1,19.07-20.31Z" transform="translate(-13.167 36.526)" fill="#fff"/>
      <path id="Caminho_4255" data-name="Caminho 4255" d="M19.746-36.037A6.5,6.5,0,0,0,26.218-29.6a6.488,6.488,0,0,0,6.472-6.509,6.479,6.479,0,0,0-6.472-6.436h-.036a6.429,6.429,0,0,0-4.567,1.921A6.433,6.433,0,0,0,19.746-36.037Zm6.47-5.03a5.029,5.029,0,0,1,3.594,1.508,5,5,0,0,1,1.441,3.573A5.041,5.041,0,0,1,26.217-31H26.17a5.04,5.04,0,0,1-4.987-5.081h0A5.055,5.055,0,0,1,26.216-41.067Z" transform="translate(-15.071 42.544)" fill="#fff"/>
    </g>
  </g>
</svg>
