<?xml version="1.0" encoding="utf-8"?>
<!-- Generator: Adobe Illustrator 23.0.1, SVG Export Plug-In . SVG Version: 6.00 Build 0)  -->
<svg version="1.1" id="Layer_1" xmlns="http://www.w3.org/2000/svg" xmlns:xlink="http://www.w3.org/1999/xlink" x="0px" y="0px"
	 viewBox="0 0 2249.4 1113.3" style="enable-background:new 0 0 2249.4 1113.3;" xml:space="preserve">
<style type="text/css">
	.st0{fill:#FFFFFF;}
	.st1{fill:#9A3324;}
	.st2{fill-rule:evenodd;clip-rule:evenodd;fill:#FFFFFF;}
	.st3{fill:#001E60;}
</style>
<path id="Layer" class="st0" d="M1411.3,1101.2h171.1l209.8-256.7V371h45.9V49h-359.8v322h45.2v350.6l-44.6,51.8h-67.5h-0.3h-67.5
	l-44.6-51.8V371h45.2V49H984.3v322h45.9v473.5l209.8,256.7H1411H1411.3L1411.3,1101.2z"/>
<path class="st1" d="M1411.3,1049.9H1513v0h51.8L1750.1,821h0v0l0-0.1l0-2V320.6h45.7V97.2h-275.3v223.5h45.7v418.1l-70.6,82.8
	h-84.2h-0.3h-84.2l-70.6-82.8V320.6h45.7V97.2h-275.3v223.5h45.6V819l0,2l0,0.1v0h0l185.4,228.8h51.8v0H1411H1411.3L1411.3,1049.9z"
	/>
<path class="st0" d="M0,1101.3v-897h164v745h264.4v152H0z"/>
<path class="st2" d="M511.7,622.3c2.4-37.3,10.7-69.4,25-96.3c0,0,18.1-21.7,54.2-65.2c5.6-4.2,11.3-8.1,17.2-11.8
	c5.9-3.6,12-7,18.3-10.1c6.2-3.1,12.6-5.9,19.1-8.3c6.5-2.5,13.1-4.6,19.8-6.5c7.1-2,14.2-3.7,21.4-5.2s14.4-2.7,21.7-3.7
	c7.3-1,14.6-1.7,21.9-2.2c7.3-0.5,14.7-0.7,22-0.7c39.7,0,73.7,5,101.8,14.9c0,0,22.8,14.1,68.5,42.3c17.5,18.3,30.2,40,38.1,65.3
	c0,0,4,27.6,11.9,82.7v429.1c0,2.3,0,4.6,0.2,6.9c0.1,2.3,0.3,4.6,0.4,6.9c0.2,2.3,0.4,4.6,0.7,6.8c0.3,2.3,0.6,4.5,1,6.8
	c1.6,9.1,3.6,18.3,6,27.4H831.4c-1.6-9.2-3.2-19-4.8-29.4c0,0-2-12.3-5.9-37c-5.6,5.8-11.4,11.4-17.4,16.7
	c-6.1,5.3-12.3,10.3-18.8,15.1c-6.5,4.7-13.2,9.2-20.1,13.4c-6.9,4.2-14,8-21.2,11.5c-29.4,14.5-63.2,21.8-101.4,21.8
	c-45.3,0-81.5-13.3-108.5-39.8c0,0-13.5-40.6-40.5-121.7c0-38.9,8.3-72.9,25-101.9c0,0,23.2-25.3,69.7-75.8
	c29.8-21.5,64.7-40.6,104.9-57.1c0,0,43.5-15.7,130.5-47.2V620c0-29-7.5-49.7-22.7-62.1c0,0-18.3-6.2-54.9-18.6
	c-23.1,0-42.7,7.8-59.1,23.5c0,0-8.1,19.8-24.4,59.5L511.7,622.3z M822.7,770.3c-22.3,8.3-44.1,17.6-65.6,28
	c-5.1,2.4-10.2,5-15.1,7.7c-5,2.7-9.9,5.5-14.7,8.5c-4.8,3-9.6,6-14.2,9.2c-4.7,3.2-9.2,6.5-13.7,10c-17.1,13.3-30.8,27.5-41.1,42.9
	c0,0-5.2,16.3-15.5,49c0,22.4,6,39.8,17.9,52.2c0,0,16.3,6.2,48.9,18.6c23,0,43.1-5.6,60.2-16.8c0,0,17.7-15.1,53-45.3V770.3z"/>
<path class="st0" d="M1925.2,617.9c-29.1,0-61.9-3.2-97.6-9.6l-35.4-6.3V431.6H1615l-6-35.9c-2.5-15.1-4.7-29.3-6.5-42l0-0.2
	c-0.5-4-0.9-7.6-1.3-11c-0.4-3.6-0.7-7.3-0.9-11c-0.2-3.6-0.4-7.3-0.5-11.1c-0.1-3.8-0.2-7.5-0.2-11c0-3.4,0.1-7,0.2-10.9l0-0.1
	c0.1-3.6,0.3-7.3,0.5-10.9c0.2-3.5,0.5-7.3,0.9-11l0-0.1c0.4-3.7,0.8-7.3,1.2-10.8c1.7-13.5,3.9-28.2,6.5-43.5l6-35.8h177.1v-170
	l35.1-6.6c16.9-3.2,33.2-5.6,48.4-7.2c3.8-0.4,7.8-0.8,12.1-1.1c3.9-0.3,8-0.6,12.1-0.8c4-0.2,8-0.4,12-0.5c3.9-0.1,7.9-0.1,12-0.1
	c4,0,8,0.1,11.9,0.2c4,0.1,8,0.3,11.9,0.5c3.9,0.2,7.9,0.5,11.7,0.8l0.1,0c4.1,0.3,8.1,0.7,11.8,1.1c15.5,1.6,32.4,4,50,7.1
	l35.5,6.3v170.3h173.9l7.5,33.6c3.6,16,6.3,31.2,8.2,45c0.5,3.9,0.9,7.5,1.3,10.9c0.3,3.5,0.7,7.2,0.9,10.8
	c0.2,3.7,0.4,7.4,0.5,10.9c0.1,3.5,0.2,7.2,0.2,10.9c0,3.6-0.1,7.3-0.2,11c-0.1,3.6-0.3,7.3-0.5,11c-0.2,3.6-0.5,7.3-0.9,11
	c-0.3,3.6-0.8,7.3-1.2,10.9c-1.8,14.2-4.6,29.6-8.2,45.7l-7.5,33.6h-173.9V602l-35.5,6.3c-17.6,3.1-34.2,5.5-49.3,7.1
	c-4.1,0.4-7.9,0.8-11.7,1.1c-3.7,0.3-7.7,0.6-11.7,0.8l-0.1,0c-4,0.2-7.9,0.4-11.7,0.5C1933.2,617.8,1929.4,617.9,1925.2,617.9z"/>
<path class="st3" d="M1835.2,388.6h-183.8c-2.5-14.9-4.6-28.4-6.3-40.7c-0.4-3.2-0.8-6.4-1.1-9.6c-0.3-3.2-0.6-6.4-0.8-9.6
	c-0.2-3.2-0.4-6.4-0.5-9.6c-0.1-3.2-0.1-6.4-0.1-9.6c0-3.2,0.1-6.4,0.2-9.6c0.1-3.2,0.3-6.4,0.5-9.6c0.2-3.2,0.5-6.4,0.8-9.6
	c0.3-3.2,0.7-6.4,1.1-9.6c1.7-13,3.7-26.9,6.3-41.8h183.8V51.9c15.8-3,30.8-5.2,45-6.7c3.6-0.4,7.3-0.7,10.9-1
	c3.6-0.3,7.3-0.5,10.9-0.7c3.6-0.2,7.3-0.3,10.9-0.4c3.7-0.1,7.3-0.1,11-0.1c3.6,0,7.2,0,10.8,0.2c3.6,0.1,7.2,0.2,10.8,0.4
	c3.6,0.2,7.2,0.4,10.8,0.7c3.6,0.3,7.2,0.6,10.8,1c14.6,1.5,30.2,3.7,46.9,6.7v177.3h182.5c3.3,14.9,5.8,28.6,7.5,41.3
	c0.4,3.1,0.8,6.3,1.1,9.4c0.3,3.1,0.6,6.3,0.8,9.5c0.2,3.2,0.4,6.3,0.5,9.5c0.1,3.2,0.2,6.3,0.2,9.5c0,3.2-0.1,6.4-0.2,9.6
	c-0.1,3.2-0.3,6.4-0.5,9.6s-0.5,6.4-0.8,9.6c-0.3,3.2-0.7,6.4-1.1,9.6c-1.7,13-4.2,26.9-7.5,41.8h-182.5v177.3
	c-16.7,3-32.1,5.2-46.3,6.7c-3.5,0.4-7.1,0.7-10.6,1c-3.5,0.3-7.1,0.5-10.6,0.7c-3.5,0.2-7.1,0.3-10.6,0.4
	c-3.5,0.1-7.1,0.1-10.6,0.1c-26.7,0-56.7-3-90-8.9V388.6z"/>
</svg>
