<svg xmlns="http://www.w3.org/2000/svg" viewBox="0 0 102.5 32.56"><defs><style>.cls-1{fill:#fff;}.cls-2{fill:#dd0713;}.cls-3{fill:#273285;}</style></defs><title>Asset 1</title><g id="Layer_2" data-name="Layer 2"><g id="overs"><path class="cls-1" d="M0,0H5V27.19h8.21v4.53H0Z"/><path class="cls-1" d="M31.49,31.72h-5L25.6,26H19.49l-.87,5.75H14.05L19.12,0h7.3ZM20.12,21.66h4.8l-2.4-16Z"/><path class="cls-2" d="M50.93,7.89H53.6v13.8a2.68,2.68,0,0,1-.7,2,2.82,2.82,0,0,1-2.1.69H48.26a2.86,2.86,0,0,1-2.11-.7,2.67,2.67,0,0,1-.69-2V7.89h2.67V1.09H33.32v6.8h2.92V24.51L43.85,32H55.22l7.61-7.45V7.89h2.92V1.09H50.94Z"/><path class="cls-1" d="M43.6,32.56l-8-7.8V8.5H32.71v-8h16v8H46.07V21.7a2.1,2.1,0,0,0,.51,1.54,2.3,2.3,0,0,0,1.68.52h2.55a2.21,2.21,0,0,0,1.68-.52A2.11,2.11,0,0,0,53,21.69V8.5H50.32v-8h16v8H63.44V24.76l-8,7.8Zm-6.75-8.31,7.25,7.09H55l7.25-7.09v-17h2.92V1.7H51.55V7.28h2.67V21.69a3.24,3.24,0,0,1-.88,2.41A3.36,3.36,0,0,1,50.8,25H48.27a3.47,3.47,0,0,1-2.55-.88,3.23,3.23,0,0,1-.87-2.4V7.28h2.67V1.7H33.93V7.28h2.92Z"/><polygon class="cls-3" points="90.36 11.7 91.22 0.99 82.08 0.99 81.22 11.7 69.43 11.7 69.43 20.18 81.07 20.18 80.21 31.8 89.35 31.8 90.21 20.18 101.89 20.18 101.89 11.7 90.36 11.7"/><path class="cls-1" d="M89.91,32.41H79.55l.86-11.62H68.82v-9.7H80.66L81.52.39H91.88L91,11.09H102.5v9.7H90.77Zm-9-1.22h7.92l.86-11.62h11.64V12.31H89.7l.86-10.7H82.65l-.86,10.7H70v7.26H81.72Z"/></g></g></svg>