<svg id="Layer_1" data-name="Layer 1" xmlns="http://www.w3.org/2000/svg" viewBox="0 0 2212.43 1070.28"><defs><style>.cls-1{fill:#fff;}.cls-2{fill:#e12526;}.cls-3{fill:#293989;}</style></defs><title>Artboard 1</title><polygon class="cls-1" points="1411.29 1058.19 1582.39 1058.19 1792.17 801.53 1792.17 328.03 1838.05 328.03 1838.05 6.01 1478.21 6.01 1478.21 328.03 1523.39 328.03 1523.39 678.63 1478.81 730.42 1411.29 730.42 1411.02 730.42 1343.51 730.42 1298.93 678.63 1298.93 328.03 1344.12 328.03 1344.12 6.01 984.27 6.01 984.27 328.03 1030.17 328.03 1030.17 801.53 1239.93 1058.19 1411.02 1058.19 1411.29 1058.19"/><polygon class="cls-2" points="1411.29 1006.86 1512.96 1006.86 1512.96 1006.81 1564.74 1006.81 1750.1 778.03 1750.12 778.03 1750.12 778.01 1750.16 777.95 1750.12 776 1750.12 277.63 1795.77 277.63 1795.77 54.15 1520.45 54.15 1520.45 277.63 1566.1 277.63 1566.1 695.69 1495.51 778.44 1411.29 778.44 1411.03 778.44 1326.83 778.44 1256.23 695.69 1256.23 277.63 1301.88 277.63 1301.88 54.15 1026.56 54.15 1026.56 277.63 1072.21 277.63 1072.21 776 1072.17 777.95 1072.21 778.01 1072.21 778.03 1072.22 778.03 1257.59 1006.81 1309.38 1006.81 1309.38 1006.86 1411.03 1006.86 1411.29 1006.86"/><path class="cls-3" d="M1841.18,345.64H1657.43q-3.75-22.29-6.25-40.69a285.07,285.07,0,0,1-2.5-38.47,302,302,0,0,1,2.5-38.46q2.49-19.5,6.25-41.82h183.75V8.92q23.74-4.45,45-6.69A420.82,420.82,0,0,1,1929.93,0a427.1,427.1,0,0,1,43.12,2.23q21.87,2.24,46.88,6.69V186.2h182.5q5,22.32,7.5,41.25a291,291,0,0,1,2.5,37.93,303.46,303.46,0,0,1-2.5,38.46q-2.5,19.5-7.5,41.8h-182.5v177.3q-25,4.45-46.25,6.69a403.47,403.47,0,0,1-42.5,2.23q-40,0-90-8.92Z"/><path class="cls-1" d="M0,1058.28v-897H164v745H428.41v152Z"/><path class="cls-1" d="M511.73,579.28q3.56-55.92,25-96.3t54.19-65.23a222.22,222.22,0,0,1,74.45-36.66,317.71,317.71,0,0,1,87-11.81q59.55,0,101.84,14.92t68.5,42.3q26.2,27.38,38.11,65.3t11.93,82.68v429.08a158.91,158.91,0,0,0,2.37,27.36q2.39,13.69,6,27.36H831.41q-2.38-13.79-4.75-29.44t-5.93-37a274.75,274.75,0,0,1-77.54,56.64q-44.13,21.78-101.37,21.78-68,0-108.55-39.75T492.73,908.77q0-58.39,25-101.88t69.69-75.78Q632.1,698.82,692.27,674t130.46-47.22V577q0-43.47-22.66-62.11t-54.86-18.64q-34.59,0-59.05,23.55t-24.43,59.45Zm311,148q-33.37,12.43-65.57,28a321.5,321.5,0,0,0-57.81,35.39q-25.64,19.88-41.12,42.86t-15.5,49q0,33.54,17.87,52.18t48.88,18.62q34.56,0,60.2-16.76t53.05-45.33Z"/></svg>