<svg xmlns="http://www.w3.org/2000/svg" viewBox="0 0 867.33 528.99"><defs><style>.cls-1,.cls-4{fill:#fff;}.cls-1,.cls-2{fill-rule:evenodd;}.cls-2{fill:#e32213;}.cls-3{fill:#273285;}</style></defs><title>Asset 3</title><g id="Layer_2" data-name="Layer 2"><g id="Camada_1" data-name="Camada 1"><polygon class="cls-1" points="337.33 0 534.33 0 534.33 164.17 512.07 164.17 512.07 332.02 534.27 356.31 596.13 356.31 618.32 332.02 618.32 164.17 596.06 164.17 596.06 0 793.06 0 793.06 164.17 769.69 164.17 769.69 413.47 664.56 528.33 664.56 528.99 663.95 528.99 466.44 528.99 465.83 528.99 465.83 528.33 360.71 413.47 360.71 164.17 337.33 164.17 337.33 0 337.33 0"/><polygon class="cls-2" points="361.8 25.54 508.72 25.54 508.72 138.63 487.57 138.63 487.57 339.59 527.85 384.28 602.54 384.28 642.82 339.59 642.82 138.63 621.67 138.63 621.67 25.54 768.59 25.54 768.59 138.63 746.33 138.63 746.33 401.31 653.95 503.45 653.41 503.45 476.98 503.45 476.44 503.45 384.06 401.31 384.06 138.63 361.8 138.63 361.8 25.54 361.8 25.54"/><path d="M0,19H55.6v435.9h91.49v72.66H0Z"/><path d="M351.3,527.55H295.2l-9.61-92.27H217.35l-9.6,92.27H156.7L213.31,19h81.38ZM224.43,366.26H278L251.22,109.08Z"/><polygon class="cls-3" points="791.77 214.84 797.13 141.88 740.21 141.88 734.86 214.84 661.4 214.84 661.4 272.68 733.89 272.68 728.53 351.83 785.44 351.83 790.8 272.68 863.54 272.68 863.54 214.84 791.77 214.84"/><path class="cls-4" d="M789,356H724.45l5.35-79.15H657.61V210.68h73.74l5.36-73h64.53l-5.36,73h71.45v66.16h-73Zm-56.35-8.31h49.29l5.36-79.16h72.47V219H787.65L793,146H743.72l-5.36,73H665.2v49.53H738Z"/></g></g></svg>