<svg xmlns="http://www.w3.org/2000/svg" viewBox="0 0 2213 1071" width="2213" height="1071">
	<style>
		tspan { white-space:pre }
		.shp0 { fill: #ffffff } 
		.shp1 { fill: #9a3324 } 
		.shp2 { fill: #001e60 } 
		.shp3 { fill: #000000 } 
	</style>
	<path id="Layer" class="shp0" d="M1411.29 1058.19L1582.39 1058.19L1792.17 801.53L1792.17 328.03L1838.05 328.03L1838.05 6.01L1478.21 6.01L1478.21 328.03L1523.39 328.03L1523.39 678.63L1478.81 730.42L1411.29 730.42L1411.02 730.42L1343.51 730.42L1298.93 678.63L1298.93 328.03L1344.12 328.03L1344.12 6.01L984.27 6.01L984.27 328.03L1030.17 328.03L1030.17 801.53L1239.93 1058.19L1411.02 1058.19L1411.29 1058.19L1411.29 1058.19Z" />
	<path id="Layer" class="shp1" d="M1411.29 1006.86L1512.96 1006.86L1512.96 1006.81L1564.74 1006.81L1750.1 778.03L1750.12 778.03L1750.12 778.01L1750.16 777.95L1750.12 776L1750.12 277.63L1795.77 277.63L1795.77 54.15L1520.45 54.15L1520.45 277.63L1566.1 277.63L1566.1 695.69L1495.51 778.44L1411.29 778.44L1411.03 778.44L1326.83 778.44L1256.23 695.69L1256.23 277.63L1301.88 277.63L1301.88 54.15L1026.56 54.15L1026.56 277.63L1072.21 277.63L1072.21 776L1072.17 777.95L1072.21 778.01L1072.21 778.03L1072.22 778.03L1257.59 1006.81L1309.38 1006.81L1309.38 1006.86L1411.03 1006.86L1411.29 1006.86L1411.29 1006.86Z" />
	<path id="Layer" class="shp2" d="M1841.18 345.64L1657.43 345.64C1654.93 330.78 1652.85 317.22 1651.18 304.95C1650.76 301.76 1650.38 298.57 1650.07 295.37C1649.75 292.17 1649.49 288.97 1649.28 285.76C1649.07 282.55 1648.92 279.34 1648.82 276.12C1648.72 272.91 1648.67 269.7 1648.68 266.48C1648.68 263.27 1648.74 260.05 1648.84 256.84C1648.95 253.63 1649.11 250.42 1649.32 247.21C1649.52 244 1649.78 240.8 1650.09 237.6C1650.41 234.4 1650.77 231.21 1651.18 228.02C1652.84 215.02 1654.92 201.08 1657.43 186.2L1841.18 186.2L1841.18 8.92C1857.01 5.95 1872.01 3.72 1886.18 2.23C1889.81 1.85 1893.45 1.53 1897.09 1.25C1900.73 0.96 1904.38 0.73 1908.03 0.55C1911.67 0.36 1915.32 0.22 1918.97 0.13C1922.63 0.04 1926.28 0 1929.93 0C1933.53 0 1937.13 0.05 1940.73 0.15C1944.33 0.24 1947.92 0.38 1951.52 0.57C1955.11 0.76 1958.71 0.99 1962.29 1.26C1965.88 1.54 1969.47 1.86 1973.05 2.23C1987.63 3.72 2003.26 5.95 2019.93 8.92L2019.93 186.2L2202.43 186.2C2205.76 201.08 2208.26 214.83 2209.93 227.45C2210.34 230.59 2210.71 233.74 2211.02 236.9C2211.33 240.05 2211.59 243.21 2211.8 246.37C2212.01 249.54 2212.17 252.7 2212.27 255.87C2212.38 259.04 2212.43 262.21 2212.43 265.38C2212.43 268.59 2212.37 271.81 2212.26 275.02C2212.16 278.23 2212 281.44 2211.79 284.65C2211.58 287.86 2211.32 291.06 2211.01 294.26C2210.7 297.46 2210.34 300.65 2209.93 303.84C2208.26 316.84 2205.76 330.77 2202.43 345.64L2019.93 345.64L2019.93 522.94C2003.26 525.91 1987.85 528.14 1973.68 529.63C1970.15 530 1966.62 530.33 1963.08 530.61C1959.54 530.89 1956 531.12 1952.46 531.31C1948.92 531.49 1945.37 531.63 1941.82 531.72C1938.28 531.82 1934.73 531.86 1931.18 531.86C1904.51 531.86 1874.51 528.89 1841.18 522.94L1841.18 345.64Z" />
	<path id="Layer" class="shp3" d="M0 1058.28L0 161.28L164 161.28L164 906.28L428.41 906.28L428.41 1058.28L0 1058.28Z" />
	<path id="Layer" fill-rule="evenodd" class="shp3" d="M511.73 579.28C514.1 542 522.44 509.9 536.73 482.98C536.73 482.98 554.79 461.24 590.92 417.75C596.48 413.56 602.23 409.64 608.16 406C614.08 402.35 620.18 398.99 626.42 395.91C632.66 392.84 639.04 390.06 645.55 387.59C652.05 385.11 658.66 382.94 665.37 381.09C672.44 379.11 679.57 377.37 686.76 375.88C693.95 374.39 701.19 373.15 708.46 372.17C715.73 371.18 723.04 370.44 730.37 369.96C737.69 369.48 745.03 369.25 752.37 369.28C792.07 369.28 826.02 374.25 854.21 384.2C854.21 384.2 877.04 398.3 922.71 426.5C940.18 444.75 952.88 466.52 960.82 491.8C960.82 491.8 964.8 519.36 972.75 574.48L972.75 1003.56C972.75 1005.85 972.8 1008.14 972.9 1010.43C973 1012.72 973.15 1015.01 973.34 1017.29C973.54 1019.57 973.79 1021.85 974.08 1024.12C974.38 1026.4 974.73 1028.66 975.12 1030.92C976.71 1040.05 978.71 1049.17 981.12 1058.28L831.41 1058.28C829.82 1049.09 828.24 1039.27 826.66 1028.84C826.66 1028.84 824.68 1016.51 820.73 991.84C815.16 997.65 809.34 1003.21 803.29 1008.5C797.23 1013.8 790.95 1018.83 784.45 1023.57C777.96 1028.32 771.26 1032.78 764.37 1036.93C757.48 1041.09 750.42 1044.94 743.19 1048.48C713.77 1063 679.98 1070.26 641.82 1070.26C596.49 1070.26 560.3 1057.01 533.27 1030.51C533.27 1030.51 519.76 989.93 492.73 908.77C492.73 869.84 501.06 835.88 517.73 806.89C517.73 806.89 540.96 781.63 587.42 731.11C617.21 709.58 652.16 690.55 692.27 674C692.27 674 735.76 658.26 822.73 626.78L822.73 577C822.73 548.02 815.18 527.32 800.07 514.89C800.07 514.89 781.78 508.68 745.21 496.25C722.15 496.25 702.47 504.1 686.16 519.8C686.16 519.8 678.02 539.62 661.73 579.25L511.73 579.28ZM822.73 727.28C800.48 735.57 778.63 744.9 757.16 755.28C752.05 757.71 747 760.27 742.03 762.97C737.05 765.67 732.15 768.49 727.32 771.45C722.49 774.4 717.75 777.48 713.08 780.69C708.42 783.89 703.84 787.22 699.35 790.67C682.26 803.92 668.55 818.21 658.23 833.53C658.23 833.53 653.06 849.86 642.73 882.53C642.73 904.89 648.69 922.28 660.6 934.71C660.6 934.71 676.89 940.92 709.48 953.33C732.52 953.33 752.59 947.74 769.68 936.57C769.68 936.57 787.36 921.46 822.73 891.24L822.73 727.28Z" />
</svg>