<?xml version="1.0" encoding="utf-8"?>
<!-- Generator: Adobe Illustrator 21.0.2, SVG Export Plug-In . SVG Version: 6.00 Build 0)  -->
<svg version="1.1" id="Capa_1" xmlns="http://www.w3.org/2000/svg" xmlns:xlink="http://www.w3.org/1999/xlink" x="0px" y="0px"
	 viewBox="0 0 170 225" style="enable-background:new 0 0 170 225;" xml:space="preserve">
<style type="text/css">
	.st0{fill:#FFFFFF;}
	.st1{fill:#001A71;}
	.st2{fill:#EE3123;}
</style>
<title>logo-udechile</title>
<desc>Created with Sketch.</desc>
<g id="Page-1_1_">
	<g id="logo-udechile_1_">
		<g id="Page-1">
			<g id="logo-udechile">
				<path id="Shape_22_" class="st1" d="M85.2,221.4c-18.4-9.2-35-21.6-49.1-36.6c-12.7-13.7-22.7-29.5-28.3-48.4
					C5.5,128.2,4,119.6,3.4,111c6.7-3.8,21.8-11.5,27.1-24.9h9.7C36.8,84.3,27.3,73.4,27.6,60c0.3-17.1,10.3-22.4,10.2-36.5
					c0-5.9-1.4-11.6-3.9-16.9c6.8,3.2,11.4,6.1,21.4,6.1c11.8,0.1,15.3-4.7,30.2-4.9c15,0.3,18.4,4.9,30.2,4.9
					c9.9,0,14.5-2.8,21.3-6.1c-2.6,5.3-3.9,11.1-3.9,16.9c-0.2,14.1,9.9,19.3,10.2,36.5c0.3,13.3-9.2,24.3-12.6,26.2h9.4
					c5.5,13.5,20.4,21.1,27.1,24.9c-0.5,8.6-2,17.2-4.5,25.4c-5.5,18.9-15.5,34.6-28.3,48.4C120.2,199.8,103.6,212.2,85.2,221.4"/>
				<path id="Shape_23_" class="st0" d="M85.2,224.9l-1.4-0.7c-18.7-9.4-35.7-22-50.1-37.2c-14.1-15-23.6-31.3-29-49.5
					c-2.5-8.5-4.1-17.2-4.6-26.1l-0.2-2l1.7-1c0.5-0.3,1-0.5,1.5-0.9c6.8-3.8,19.6-10.9,24.3-22.4l0.8-2.1h4.1
					c-4.1-5.4-8.3-13.7-8.1-23c0.2-9.6,3.2-15.7,5.8-21.2c2.3-4.9,4.4-9,4.4-15.1c0-5.4-1.3-10.7-3.7-15.6L27,0l8,3.8
					c0.8,0.4,1.5,0.7,2.2,1.1c5.6,2.7,9.7,4.7,17.8,4.7h0.2c4.2,0,8.4-0.7,12.4-2.1c5.7-1.8,11.7-2.7,17.6-2.8h0.2
					c6,0.1,11.9,1,17.6,2.8c4,1.3,8.2,2,12.4,2.1h0.2c8.2,0,12.2-2,17.7-4.7c0.7-0.3,1.4-0.7,2.2-1.1l8.1-3.9l-3.9,8.1
					c-2.4,4.9-3.6,10.2-3.7,15.6c-0.1,6.1,2,10.2,4.4,15.1c2.6,5.5,5.6,11.6,5.8,21.2c0.2,9.4-4,17.6-8.2,23h4.1l0.8,2.1
					c4.6,11.5,17.4,18.6,24.3,22.5c0.5,0.2,1,0.5,1.4,0.9l1.7,1l-0.2,2.1c-0.5,8.8-2,17.6-4.6,26.1c-5.5,18.3-15,34.5-29,49.5
					c-14,15-32.2,28.6-50.1,37.2L85.2,224.9z M6.7,112.9c0.6,7.7,2,15.3,4.2,22.7c5.1,17.3,14.1,32.7,27.6,47.1
					C52,197,67.8,208.9,85.2,218c17.5-9,33.3-21,46.8-35.3c13.4-14.3,22.5-29.7,27.6-47c2.2-7.4,3.6-15,4.2-22.7
					c-7.2-4-20-11.3-25.9-23.5h-7.5l-1.5-5.9c2.7-1.4,11.2-11.5,11-23.3c-0.2-8.1-2.7-13.4-5.2-18.5s-5-10.4-5-18
					c0-3.6,0.5-7.2,1.4-10.7c-4.9,2.1-10.2,3.1-15.6,3h-0.2c-4.8,0-9.6-0.8-14.1-2.3c-5.2-1.6-10.5-2.5-15.9-2.6
					c-5.4,0.1-10.8,1-15.9,2.6c-4.6,1.5-9.3,2.3-14.1,2.3H55c-5.3,0.1-10.7-0.9-15.6-3c1,3.5,1.4,7.1,1.4,10.7
					c0.1,7.5-2.5,12.9-5,18c-2.5,5.1-5,10.4-5.2,18.4c-0.3,11.9,8.3,21.9,11,23.3l10.8,6H32.6C26.8,101.6,14,108.9,6.7,112.9
					L6.7,112.9z"/>
				<path id="Shape_24_" class="st1" d="M85.2,221.4c-18.4-9.2-35-21.6-49.1-36.6c-12.7-13.7-22.7-29.5-28.3-48.4
					C5.5,128.2,4,119.6,3.4,111c6.7-3.8,21.8-11.5,27.1-24.9h9.7C36.8,84.3,27.3,73.4,27.6,60c0.3-17.1,10.3-22.4,10.2-36.5
					c0-5.9-1.4-11.6-3.9-16.9c6.8,3.2,11.4,6.1,21.4,6.1c11.8,0.1,15.3-4.7,30.2-4.9c15,0.3,18.4,4.9,30.2,4.9
					c9.9,0,14.5-2.8,21.3-6.1c-2.6,5.3-3.9,11.1-3.9,16.9c-0.2,14.1,9.9,19.3,10.2,36.5c0.3,13.3-9.2,24.3-12.6,26.2h9.4
					c5.5,13.5,20.4,21.1,27.1,24.9c-0.5,8.6-2,17.2-4.5,25.4c-5.5,18.9-15.5,34.6-28.3,48.4C120.2,199.8,103.6,212.2,85.2,221.4"/>
				<path id="Shape_25_" class="st0" d="M85.2,216.8c-22.7-12.2-44.9-29.6-59.7-52.2c-9.8-15-16.3-32-17.6-51.1
					c6.2-3.6,19.4-10.4,25.2-23.3H41l3.1-2.7v-3.4c-3.4-1.9-12.5-11.9-12.4-24.6C32.1,45.7,42,38.7,42,23.9c0-3.2-0.3-6.3-0.9-9.4
					c4.7,1.7,9.7,2.6,14.8,2.5c10.6,0,19.1-4.9,29.6-4.9s19.1,4.9,29.6,4.9c5,0.1,10-0.8,14.8-2.5c-0.7,3.1-1,6.3-0.9,9.5
					c0,14.9,9.9,21.8,10.2,35.5c0.3,12.7-9,22.7-12.4,24.6v3.4l3.2,2.7h7.9c5.7,12.9,19.1,19.7,25.2,23.3
					c-1.3,18.3-7.3,35.9-17.5,51.1C130.1,187.1,107.9,204.7,85.2,216.8"/>
				<path id="Shape_26_" class="st1" d="M85.2,210c-20.5-10.7-41.5-27.9-55.4-49.5c-8.8-13.2-14.2-28.4-15.9-44.1
					c3.8-2.1,14.2-7.3,21.6-19l49.8,11.4L135,97.3c7.3,11.6,17.9,16.8,21.6,19C152.6,158.7,118.2,192.9,85.2,210"/>
				<path id="Shape_27_" class="st0" d="M71.5,189.7l-18.5-18v-42.8h-7.3v-14.3h34.7v14.3h-6.7v36.4c0,5.2,3.1,8.2,8.5,8.1h6.4
					c5.4,0.1,8.5-3,8.5-8.1v-36.4h-6.7v-14.4h34.8v14.3h-7.3v42.9l-18.5,18H71.5L71.5,189.7z"/>
				<path id="Shape_28_" class="st2" d="M85.2,38.1c-12.5-8.9-22.2-11.8-30.9-13c6.9-4.8,19.9-9.8,30.9-9.3
					c11.1-0.5,24,4.5,30.9,9.3C107.5,26.2,97.8,29.2,85.2,38.1"/>
				<path id="Shape_29_" class="st2" d="M85.2,96.8l-20.4-4.7c3.4-2.2,10-11.3,9.6-20.8c-4.9,3.5-10.7,5.4-16.7,5.6
					C48,77,39,71.6,39,58.9c0-11.2,9.1-14.1,9-23.7c0-1.8-0.3-3.6-0.9-5.4c17.9-0.4,29.8,8.4,38.3,17.6c8.5-9.2,20.5-18.1,38.3-17.6
					c-0.6,1.7-0.9,3.5-0.9,5.4c-0.3,9.7,9,12.5,9,23.7c0,12.7-9,18-18.8,18c-6-0.1-11.8-2-16.7-5.5c-0.5,9.5,6.2,18.6,9.6,20.8
					L85.2,96.8z"/>
				<path id="Shape_30_" class="st0" d="M62.1,44.5c6.4,0.2,11.4,5.5,11.3,11.9S68,67.9,61.6,67.8s-11.5-5.3-11.5-11.7
					c0-3.1,1.3-6.1,3.6-8.3C55.9,45.7,58.9,44.5,62.1,44.5"/>
				<path id="Shape_31_" class="st0" d="M108.5,44.5c-6.4,0.2-11.4,5.5-11.3,11.9s5.4,11.5,11.8,11.4c6.4-0.1,11.5-5.3,11.5-11.7
					c0-3.1-1.3-6.1-3.6-8.3C114.7,45.7,111.7,44.5,108.5,44.5"/>
				<polygon id="Shape_32_" class="st2" points="85.2,99.4 45.3,90.3 42.7,92.8 39.1,92.8 37.6,95 85.2,105.8 133,94.9 131.5,92.8
					127.8,92.8 125.3,90.3 				"/>
			</g>
		</g>
	</g>
</g>
</svg>
