<svg xmlns="http://www.w3.org/2000/svg" viewBox="0 0 32.78 43"><defs><style>.cls-1{fill:#273285;}.cls-2{fill:#fff;}.cls-3{fill:#dd0713;}</style></defs><title>Asset 2</title><g id="Layer_2" data-name="Layer 2"><g id="overs"><path class="cls-1" d="M16.39,43a35.14,35.14,0,0,1-9.83-7.33A24.24,24.24,0,0,1,.89,26,23.33,23.33,0,0,1,0,20.91c1.33-.76,4.35-2.28,5.43-5H7.36a6.84,6.84,0,0,1-2.54-5.24c.06-3.42,2.07-4.47,2-7.3A7.72,7.72,0,0,0,6.07,0a8.31,8.31,0,0,0,4.27,1.21c2.36,0,3.07-.93,6.05-1s3.69,1,6.06,1A8.37,8.37,0,0,0,26.72,0a7.59,7.59,0,0,0-.79,3.39c0,2.83,2,3.88,2,7.3a6.84,6.84,0,0,1-2.53,5.24h1.92c1.08,2.7,4.1,4.22,5.43,5A22.75,22.75,0,0,1,31.89,26a24.12,24.12,0,0,1-5.67,9.68A35,35,0,0,1,16.39,43Z"/><path class="cls-2" d="M16.39,42.08a33,33,0,0,1-12-10.45A21,21,0,0,1,.91,21.38c1.24-.71,3.88-2.08,5-4.66H7.52l.61-.53V15.5h0a6.27,6.27,0,0,1-2.47-4.93c0-2.77,2-4.15,2-7.12a8.33,8.33,0,0,0-.19-1.9,8.32,8.32,0,0,0,2.95.5c2.11,0,3.85-1,5.94-1s3.83,1,5.94,1a8.53,8.53,0,0,0,3-.49,8.81,8.81,0,0,0-.19,1.89c0,3,2,4.36,2,7.12a6.27,6.27,0,0,1-2.47,4.93h0v.68l.61.54h1.57c1.16,2.58,3.81,4,5,4.67a21,21,0,0,1-3.52,10.24,32.92,32.92,0,0,1-12,10.45Z"/><path class="cls-1" d="M16.39,40.73A29.9,29.9,0,0,1,5.28,30.8,19.93,19.93,0,0,1,2.1,22a11,11,0,0,0,4.32-3.79h0l10,2.27,10-2.27h0A11,11,0,0,0,30.68,22c-.8,8.48-7.68,15.33-14.29,18.77Z"/><path class="cls-2" d="M17.1,21.56v3.17h1.35c0,.52,0,7,0,7a1.32,1.32,0,0,1-.36,1,1.45,1.45,0,0,1-1.06.36H15.75a1.45,1.45,0,0,1-1.07-.35,1.37,1.37,0,0,1-.35-1v-7h1.35V21.28H8.17v3.45H9.66c0,.52,0,8.42,0,8.42l3.86,3.77h5.76l3.86-3.77V24.73h1.48V21.28H17.1Z"/><path class="cls-3" d="M16.39,6.28a13.16,13.16,0,0,0-6.19-2.6,11.2,11.2,0,0,1,12.39,0,13.15,13.15,0,0,0-6.2,2.6Z"/><path class="cls-3" d="M16.39,18l-4.1-.93h0a5.37,5.37,0,0,0,1.92-4.16,5.94,5.94,0,0,1-3.34,1.11A3.43,3.43,0,0,1,7.1,10.44c0-2.25,1.83-2.82,1.79-4.76A3.51,3.51,0,0,0,8.7,4.61a9.84,9.84,0,0,1,7.69,3.53,9.84,9.84,0,0,1,7.69-3.53,3.84,3.84,0,0,0-.19,1.07c0,1.94,1.8,2.51,1.8,4.76a3.43,3.43,0,0,1-3.77,3.61,5.94,5.94,0,0,1-3.35-1.11,5.43,5.43,0,0,0,1.92,4.16h0l-4.1.93Z"/><path class="cls-2" d="M11.73,7.56a2.34,2.34,0,1,1-2.4,2.33,2.36,2.36,0,0,1,2.4-2.33Z"/><path class="cls-2" d="M21.05,7.56a2.34,2.34,0,1,0,2.4,2.33,2.36,2.36,0,0,0-2.4-2.33Z"/><polygon class="cls-3" points="16.39 18.56 8.38 16.74 7.86 17.23 7.14 17.23 6.84 17.67 16.39 19.84 25.94 17.67 25.64 17.22 24.92 17.22 24.4 16.73 16.39 18.56 16.39 18.56"/></g></g></svg>