<svg xmlns="http://www.w3.org/2000/svg" viewBox="0 0 70 93" width="70" height="93">
	<style>
		tspan { white-space:pre }
		.shp0 { fill: #ffffff } 
		.shp1 { fill: #001e60 } 
		.shp2 { fill: #9a3324 } 
	</style>
	<path id="Path 2" class="shp0" d="M35.31 92.42L34.74 92.15C27.49 88.6 20.04 83.04 14.3 76.91C8.54 70.74 4.66 64.11 2.45 56.65C1.44 53.24 0.81 49.65 0.57 45.99L0.52 45.18L1.23 44.79C1.42 44.68 1.63 44.56 1.85 44.44C4.65 42.87 9.86 39.97 11.74 35.27L12.07 34.45L13.74 34.46C12.06 32.26 10.35 28.88 10.41 25.05C10.48 21.15 11.71 18.63 12.79 16.39C13.76 14.39 14.59 12.67 14.56 10.19C14.54 8.63 14.35 6.49 13.07 3.81L11.5 0.53L14.79 2.08C15.11 2.23 15.41 2.38 15.71 2.52C17.99 3.63 19.64 4.42 22.96 4.43L23.01 4.43C25.11 4.43 26.49 4.04 28.09 3.59C29.9 3.07 31.95 2.49 35.29 2.43L35.31 2.43L35.33 2.43C38.67 2.49 40.72 3.07 42.53 3.59C44.13 4.04 45.51 4.43 47.61 4.43L47.66 4.43C50.98 4.42 52.63 3.63 54.91 2.52C55.21 2.38 55.51 2.23 55.82 2.08L59.12 0.53L57.54 3.81C56.26 6.48 56.07 8.63 56.05 10.19C56.02 12.67 56.86 14.39 57.83 16.39C58.91 18.62 60.14 21.15 60.2 25.05C60.27 28.88 58.56 32.26 56.87 34.46L58.55 34.45L58.87 35.27C60.76 39.97 65.97 42.88 68.78 44.44C69 44.56 69.2 44.68 69.39 44.79L70.1 45.18L70.05 45.99C69.81 49.65 69.18 53.23 68.17 56.65C65.96 64.11 62.08 70.74 56.31 76.91C50.57 83.05 43.12 88.6 35.88 92.15L35.31 92.42Z" />
	<path id="Path 3" class="shp1" d="M35.31 90.99C28.27 87.54 21.02 82.19 15.25 76.03C10.04 70.45 5.97 63.98 3.69 56.28C2.73 53.03 2.1 49.58 1.87 45.91C4.58 44.37 10.74 41.26 12.94 35.75L16.87 35.75C15.49 34.98 11.62 30.54 11.71 25.07C11.83 18.09 15.93 15.94 15.86 10.18C15.83 8.26 15.56 6 14.24 3.25C17.03 4.58 18.89 5.72 22.96 5.73C27.78 5.74 29.22 3.83 35.31 3.73C41.4 3.83 42.84 5.74 47.66 5.73C51.73 5.72 53.59 4.58 56.37 3.25C55.06 6 54.79 8.26 54.76 10.18C54.69 15.94 58.79 18.09 58.91 25.07C59 30.54 55.13 34.98 53.74 35.75L57.67 35.75C59.88 41.26 66.04 44.37 68.75 45.91C68.52 49.58 67.89 53.03 66.93 56.28C64.65 63.98 60.58 70.45 55.36 76.03C49.6 82.19 42.35 87.54 35.31 90.99Z" />
	<path id="Path 4" class="shp0" d="M35.31 89.11C26.05 84.13 16.96 76.98 10.91 67.78C6.9 61.7 4.23 54.72 3.72 46.88C6.25 45.42 11.65 42.63 14.01 37.36L17.2 37.35L18.46 36.25L18.45 34.87C17.05 34.1 13.33 30.01 13.41 24.81C13.5 19.17 17.58 16.35 17.55 10.28C17.55 9.58 17.53 7.86 17.17 6.42C19.11 7.19 21.41 7.44 23.19 7.43C27.5 7.43 31.05 5.45 35.31 5.42C39.56 5.45 43.12 7.43 47.42 7.44C49.21 7.44 51.51 7.2 53.45 6.43C53.09 7.86 53.06 9.59 53.06 10.29C53.05 16.35 57.11 19.18 57.21 24.82C57.29 30.01 53.57 34.1 52.17 34.87L52.15 36.26L53.41 37.36L56.61 37.37C58.97 42.63 64.37 45.43 66.9 46.89C66.39 54.72 63.72 61.7 59.71 67.79C53.66 76.98 44.57 84.14 35.31 89.11Z" />
	<path id="Path 5" class="shp1" d="M35.31 86.35C26.93 81.99 18.34 74.95 12.65 66.09C9.17 60.69 6.77 54.61 6.15 48.06C7.67 47.23 11.96 45.06 14.97 40.33L35.31 44.96L55.65 40.33C58.65 45.06 62.95 47.23 64.47 48.06C62.83 65.35 48.8 79.33 35.31 86.35Z" />
	<path id="Path 6" class="shp0" d="M29.66 78.01L22.14 70.64L22.14 53.14L19.11 53.14L19.11 47.25L33.29 47.25L33.29 53.14L30.53 53.14L30.52 67.98C30.52 70.1 31.79 71.34 34 71.32L36.62 71.32C38.82 71.34 40.1 70.1 40.1 67.98L40.09 53.13L37.33 53.13L37.33 47.24L51.51 47.25L51.51 53.13L48.48 53.13L48.49 70.64L40.96 78.01L29.66 78.01Z" />
	<path id="Path 7" class="shp2" d="M35.31 16.06C30.19 12.44 26.21 11.22 22.67 10.76C25.5 8.79 30.78 6.73 35.31 6.95C39.84 6.73 45.12 8.79 47.95 10.76C44.4 11.22 40.43 12.44 35.31 16.06ZM35.31 40.04L26.95 38.14C28.34 37.27 31.05 33.53 30.86 29.66C28.9 31.06 26.44 31.9 24.04 31.91C20.03 31.93 16.35 29.76 16.35 24.55C16.34 19.97 20.09 18.8 20.01 14.85C19.99 14.2 19.88 13.48 19.62 12.66C26.92 12.47 31.82 16.1 35.31 19.87C38.8 16.1 43.7 12.47 51 12.66C50.74 13.48 50.62 14.2 50.61 14.85C50.52 18.8 54.28 19.97 54.27 24.55C54.27 29.76 50.59 31.93 46.58 31.91C44.18 31.9 41.72 31.06 39.76 29.66C39.56 33.53 42.27 37.27 43.67 38.14L35.31 40.04Z" />
	<path id="Path 8" class="shp0" d="M25.79 18.68C28.49 18.68 30.69 20.82 30.69 23.44C30.69 26.06 28.49 28.2 25.79 28.2C23.1 28.2 20.91 26.06 20.91 23.44C20.91 20.82 23.1 18.68 25.79 18.68ZM44.82 18.68C42.13 18.68 39.94 20.82 39.94 23.44C39.94 26.06 42.13 28.2 44.82 28.2C47.51 28.2 49.71 26.06 49.71 23.44C49.71 20.82 47.51 18.68 44.82 18.68Z" />
	<path id="Path 9" class="shp2" d="M35.31 41.12L18.97 37.4L17.91 38.4L16.43 38.4L15.83 39.3L35.31 43.74L54.79 39.3L54.19 38.4L52.71 38.4L51.65 37.4L35.31 41.12Z" />
</svg>