<svg xmlns="http://www.w3.org/2000/svg" viewBox="0 0 65.62 35.99"><defs><style>.cls-1{fill:#f9f9f9;}</style></defs><title>gad-logo</title><g id="Camada_2" data-name="Camada 2"><g id="Contenido"><path class="cls-1" d="M7.56,16h6.69V27.14c0,5.63-2.43,8.85-7.12,8.85S0,32.77,0,27.14V8.85C0,3.22,2.43,0,7.13,0s7.12,3.22,7.12,8.85v3.41H9.73V8.49C9.73,6,8.78,5,7.26,5S4.78,6,4.78,8.49v19c0,2.51,1,3.42,2.48,3.42S9.73,30,9.73,27.49V21H7.56Z"/><path class="cls-1" d="M32.77,35.58H27.94l-.82-6.38H21.25l-.82,6.38H16L20.9.4h7ZM21.86,24.43h4.61L24.16,6.63Z"/><path class="cls-1" d="M35,.4h7.56c4.78,0,7.12,3.07,7.12,8.7V26.89c0,5.63-2.34,8.69-7.12,8.69H35Zm4.78,5V30.56h2.69c1.52,0,2.43-.91,2.43-3.42V8.85c0-2.52-.91-3.42-2.43-3.42Z"/><path class="cls-1" d="M51.76,31.63H65.62v4H51.76Z"/></g></g></svg>