<svg xmlns="http://www.w3.org/2000/svg" viewBox="0 0 331.25 70.68"><defs><style>.cls-1{fill:#fff;}.cls-2{fill:#e30520;}</style></defs><title>Asset 1</title><g id="Layer_2" data-name="Layer 2"><g id="Capa_1" data-name="Capa 1"><path class="cls-1" d="M33.54,70.68c-2.67-4.55-3.75-6.43-6.43-11.28C20.28,47,18.21,43.66,15.73,42.57A7.16,7.16,0,0,0,13.55,42v28.7H0V1.9H25.63C37.8,1.9,45.81,10,45.81,22.09c0,10.29-6.82,18.8-15.33,19A13.21,13.21,0,0,1,33.35,44c4,4.95,16.52,26.72,16.52,26.72ZM26.32,14a24.7,24.7,0,0,0-7.82-1H13.55V31.59h4.66c5.93,0,8.51-.6,10.39-2.28a9.39,9.39,0,0,0,2.67-6.92c0-4.26-1.68-7.23-4.95-8.41"/><path class="cls-1" d="M241.58,70.68c-2.68-4.55-3.76-6.43-6.44-11.28-6.83-12.37-8.9-15.74-11.38-16.83a7.16,7.16,0,0,0-2.18-.59v28.7H208V1.9h25.63c12.17,0,20.19,8.11,20.19,20.19,0,10.29-6.83,18.8-15.34,19A12.93,12.93,0,0,1,241.37,44c4,4.95,16.53,26.72,16.53,26.72ZM234.35,14a24.7,24.7,0,0,0-7.82-1h-4.95V31.59h4.66c5.94,0,8.51-.6,10.39-2.28a9.39,9.39,0,0,0,2.67-6.92c0-4.26-1.68-7.23-5-8.41"/><rect class="cls-1" x="61.91" y="1.9" width="14.45" height="68.78"/><polygon class="cls-1" points="155.92 70.68 155.92 1.9 195.1 1.9 193.32 13.18 169.76 13.18 169.76 29.11 189.46 29.11 189.46 40.4 169.97 40.4 169.97 58.8 195.99 58.8 195.99 70.68 155.92 70.68"/><polygon class="cls-2" points="122.77 70.68 146.54 1.9 131.07 1.9 107.3 70.68 122.77 70.68"/><polygon class="cls-1" points="111.77 35.46 101.11 1.9 85.72 1.9 104.31 57.03 111.77 35.46"/><path class="cls-2" d="M298.29.5c.25-1.23,14.83-.75,14.1,8,0,.25-21.08,61.72-21.08,61.72-9.57,1.71-12.92-3-14.17-7.76C276.74,62.79,298.29.5,298.29.5Z"/><path class="cls-2" d="M260.78,43.33c-1.25.18-5.57-13.77,2.92-15.93.24-.07,65.22-.29,65.22-.29,4.75,8.49,1.42,13.18-2.7,15.94C326.69,43.31,260.78,43.33,260.78,43.33Z"/></g></g></svg>