<svg xmlns="http://www.w3.org/2000/svg" viewBox="0 0 41.82 41.82"><defs><style>.cls-1{fill:#4d4d4d;}</style></defs><title>facebook-icon</title><g id="Camada_2" data-name="Camada 2"><g id="Contenido"><path class="cls-1" d="M22.08,41.82H20.91a20.87,20.87,0,1,1,6.2-.93l-1.3.4Zm5.73-3.3c7.49-2.05,12-9.73,12-17.61A18.91,18.91,0,0,0,2,20.91C2,31.06,10,40.24,20.08,39.8A46,46,0,0,0,27.81,38.52Z"/><path class="cls-1" d="M31.6,27.18l.71-5.64h-5.5V18c0-1.63.45-2.75,2.76-2.75h2.94v-5a41.55,41.55,0,0,0-4.29-.22c-4.24,0-7.14,2.63-7.14,7.45v4.15H16.29v5.64h4.79V41.82a19.7,19.7,0,0,0,5.73-.93V27.18Z"/></g></g></svg>