<svg xmlns="http://www.w3.org/2000/svg" viewBox="0 0 34.59 29.84"><defs><style>.cls-1{fill:#4d4d4d;}</style></defs><title>like-icon</title><g id="Camada_2" data-name="Camada 2"><g id="Contenido"><path class="cls-1" d="M17.3,29.84l-.2,0a1.09,1.09,0,0,1-.52-.27L2.68,15.65a9.18,9.18,0,0,1,0-13,9.15,9.15,0,0,1,13,0l1.65,1.64,1.65-1.65a9.17,9.17,0,0,1,13,0l-.7.71.7-.7a9.15,9.15,0,0,1,0,13L18,29.55A1,1,0,0,1,17.3,29.84ZM9.16,2A7.17,7.17,0,0,0,4.09,14.23l13.2,13.2,13.2-13.2a7.16,7.16,0,0,0,0-10.13h0A7.14,7.14,0,0,0,25.42,2h0a7.12,7.12,0,0,0-5.06,2.1L18,6.46a1,1,0,0,1-1.42,0L14.23,4.1A7.16,7.16,0,0,0,9.16,2Z"/></g></g></svg>