<svg xmlns="http://www.w3.org/2000/svg" viewBox="0 0 18.5 26.7"><defs><style>.cls-1{fill:#b2b2b2;}</style></defs><title>notification-icon</title><g id="Camada_2" data-name="Camada 2"><g id="Contenido"><path class="cls-1" d="M18.35,21.37A19.71,19.71,0,0,1,17,15.26a43.81,43.81,0,0,0-1.34-7.15C14,1.18,5.56,1.18,2.8,8.11a26.71,26.71,0,0,0-1.34,7.15A19.87,19.87,0,0,1,.15,21.37c-.41,1,.06,2.29.82,2.29H17.52C18.28,23.66,18.75,22.36,18.35,21.37Z"/><path class="cls-1" d="M11.88,24.26A2.45,2.45,0,1,0,9.43,26.7,2.44,2.44,0,0,0,11.88,24.26Z"/><path class="cls-1" d="M9.43,0h0a1.18,1.18,0,0,0-1,1.27v1.9a1.18,1.18,0,0,0,1,1.27,1.18,1.18,0,0,0,1.05-1.27V1.27A1.18,1.18,0,0,0,9.43,0Z"/></g></g></svg>