<svg xmlns="http://www.w3.org/2000/svg" viewBox="0 0 170.52 212.94"><defs><style>.cls-1{fill:#fff;}.cls-2{fill:#100c08;}.cls-3{fill:#cb0520;}</style></defs><title>Ativo 2</title><g id="Camada_2" data-name="Camada 2"><g id="Contenido"><path class="cls-1" d="M138.16,2.06s-11.11,9.56-53,9.62C43.26,12,32,2.52,32,2.52L1.9,32.68s15.57,29.14,15.73,63.1c0,0,4.22,90.4,68.43,115.51,64-25.62,67.37-116.14,67.37-116.14-.19-33.95,15.16-63.21,15.16-63.21L138.16,2.06Z"/><path class="cls-2" d="M86.09,212.94l-.57-.26c-14.94-5.77-27.85-15.57-38.5-29-8.41-10.77-15.39-23.92-20.72-39A192.52,192.52,0,0,1,16,95.82v0C15.9,62.61.65,33.66.54,33.35L0,32.42l32-32,1.14,1c.06.09,11.37,9,51.42,8.78H86c39.77-.22,51-9.19,51.1-9.3L138.24,0l1,1,31.28,30.64-.54,1c-.16.26-15.16,29.33-15.06,62.52l.05.08a191.63,191.63,0,0,1-9.77,48.88,137,137,0,0,1-20.39,39.17c-10.49,13.55-23.33,23.43-38.16,29.4Zm-67-117.21a193,193,0,0,0,10.07,48c8.18,23,24.64,53.07,56.86,65.87,32.08-13.13,48.29-43.38,56.19-66.54a187.14,187.14,0,0,0,9.65-48c-.14-30.36,12.14-57.37,14.79-62.85L138,4c-3.8,2.43-17.46,9-52,9.23H84.54c-34.76.18-48.44-6.32-52.3-8.69L3.78,32.93C6.52,38.39,19,65.35,19.13,95.73Z"/><path class="cls-1" d="M85.88,18.24c-37.81.23-53.4-7.56-53.4-7.56L10.1,33.18S24.19,65.26,24.32,96.46A167.76,167.76,0,0,0,27.57,120l59-101.82-.65,0Z"/><path class="cls-1" d="M67.73,194.16a95,95,0,0,0,17.9,10.71c57.46-24.1,61.84-108.8,61.84-108.8A163.33,163.33,0,0,1,157.69,42.3L67.46,194.7Z"/><path class="cls-3" d="M94,18.1l-64,110.43C35,148.31,45,171.58,63.27,189.62L156.43,29.05,137.71,10.28S125.85,16.92,94,18.1Z"/><path class="cls-1" d="M36.23,92.75c-.13-26.92,21.86-48.82,49.11-49s49.33,21.61,49.46,48.51-21.84,48.89-49.1,49S36.32,119.64,36.23,92.75Z"/><path class="cls-2" d="M87.12,18.89,88,17.42h0v0l-.11,0-2,0H82.9c-27.31,0-42.41-4-50.27-7.41l-.44-.19L9,33l.21.47C13.42,43,23.25,68,23.45,95.59l0,.24a187.56,187.56,0,0,0,3.92,26l.35-.61L87.11,18.89ZM28,117.8A181.83,181.83,0,0,1,24.9,95.72l0-.18c-.19-27.4-9.8-52.29-14.16-62.19l21.8-21.79c8.09,3.4,23.33,7.35,50.38,7.35h2.54Z"/><path class="cls-2" d="M156.69,30l.74-1.27h0v0L137.72,9.32l-.44.2c-7.13,3.18-20.3,6.93-43.47,7.76l0,0L29.07,128.62h0l0,0c1.18,4.55,2.61,9.34,4.32,14.22,5.43,15.28,14.67,34,30,48.15l.57-1ZM34.73,142.4c-1.64-4.66-3-9.21-4.15-13.58l64-110.11c22.48-.87,35.57-4.51,42.84-7.65L155.62,29,63.08,188.72C48.71,174.91,39.93,157.06,34.73,142.4Z"/><path class="cls-2" d="M157.91,40.24v0l-1.26-.73s0,.09,0,.14L67.83,193h0l-.73,1.28h0a78.81,78.81,0,0,0,18.46,11.37l.29.13.28-.13c29.27-13.16,44.19-41.74,51.56-63.39a190.46,190.46,0,0,0,9.51-47.16c-.08-22,6.11-42.6,10.7-54.81l0,0ZM145.76,95.06a188.87,188.87,0,0,1-9.42,46.71c-7.25,21.31-21.9,49.39-50.5,62.4A77.09,77.09,0,0,1,69,193.89L154,47C149.93,59.41,145.7,76.73,145.76,95.06Z"/><path class="cls-2" d="M85.76,142v0c-27.6.09-50.13-22-50.25-49.29S57.67,43.18,85.29,43c27.57,0,50.18,22,50.28,49.28S113.35,141.87,85.76,142Zm-.47-97.45C58.56,44.69,36.88,66.34,37,92.74s22,47.81,48.69,47.75l.09.75,0-.75c26.76-.12,48.35-21.78,48.28-48.21S112.06,44.44,85.29,44.55Z"/><path class="cls-1" d="M85.29,44.55C58.56,44.69,36.88,66.34,37,92.74s22,47.81,48.69,47.75l.09.75,0-.75c26.76-.12,48.35-21.78,48.28-48.21S112.06,44.44,85.29,44.55Z"/><path class="cls-2" d="M78.89,128.28a36.25,36.25,0,0,1,0-71.3V49a44.1,44.1,0,0,0-37.52,43.6A44.78,44.78,0,0,0,42,100.2a44.15,44.15,0,0,0,36.87,36Z"/><path class="cls-2" d="M53.67,92.63a31.73,31.73,0,0,0,13.52,26V107.5a23.45,23.45,0,0,1-5.11-12.07H71.7v25.83a29.78,29.78,0,0,0,7.19,2.48h0V61.52A31.81,31.81,0,0,0,53.67,92.63Zm18-4.4H62.32a23.5,23.5,0,0,1,9.38-14.7Z"/><path class="cls-2" d="M114.17,58.93v0a42.76,42.76,0,0,0-6.41-4.45v76.26a62.84,62.84,0,0,0,7.19-5.29v-8a37.2,37.2,0,0,0-.78-58.45Zm.77,47.38V70.83a27.8,27.8,0,0,1,0,35.48Z"/><path class="cls-2" d="M97,135a27.78,27.78,0,0,0,7.16-2.66L97.86,113l0-.09a13.88,13.88,0,0,0,3-2.82,11.23,11.23,0,0,0,2.85-7.53V95h0V64c0-15.45-20.21-15.55-20.21-15.55l0,88.21a49.26,49.26,0,0,0,7.17-.36V116.07h.1ZM90.72,58.42a6.94,6.94,0,0,1,5.71,6.66v35.68a7,7,0,0,1-5.71,6.42Z"/></g></g></svg>