<svg xmlns="http://www.w3.org/2000/svg" viewBox="0 0 41.82 41.82"><defs><style>.cls-1{fill:#4d4d4d;}</style></defs><title>twitter-icon</title><g id="Camada_2" data-name="Camada 2"><g id="Contenido"><path class="cls-1" d="M20.91,41.82A20.91,20.91,0,1,1,41.82,20.91,20.93,20.93,0,0,1,20.91,41.82ZM20.91,2A18.91,18.91,0,1,0,39.82,20.91,18.93,18.93,0,0,0,20.91,2Z"/><polygon class="cls-1" points="33.64 11.61 33.64 11.61 33.64 11.61 33.64 11.61"/><path class="cls-1" d="M32.71,14a2.86,2.86,0,0,1-.92.12l0-.09a7.6,7.6,0,0,0,1.84-2.11c.07-.24,0-.32,0-.33l-1.54.66-1.29.58h0a5.13,5.13,0,0,0-3.75-1.55c-2.68,0-4.86,1.9-4.86,4.25a6.49,6.49,0,0,0,.2,1.6c0,.12,0-.12,0,0a15.35,15.35,0,0,1-5.91-1.75c-3.89-2-4.13-3.34-4.13-3.34-.61.65-.93,2.8-.31,4.48a5.63,5.63,0,0,0,1.76,2.05h0a4.1,4.1,0,0,1-1.25-.21,2.59,2.59,0,0,1-.88-.43c-.38.93.38,2.58,1.7,3.77a7,7,0,0,0,2.17,1.12l-2.19.06c-.12,2.13,4.46,3.39,4.46,3.39h0A7.44,7.44,0,0,1,13.25,28a8.59,8.59,0,0,1-2.5-.37,11.88,11.88,0,0,0,8.13,2.91c8.19-.43,12.81-7.46,13-14.37h0a5.77,5.77,0,0,0,1.2-1,8.47,8.47,0,0,0,1.33-1.78S33.22,13.88,32.71,14Z"/><path class="cls-1" d="M33.64,11.61c0,.13,0,0,0,0Z"/></g></g></svg>