<svg id="Camada_1" data-name="Camada 1" xmlns="http://www.w3.org/2000/svg" viewBox="0 0 35 35"><defs><style>.cls-1{fill:#005d9c;}.cls-1,.cls-2,.cls-3,.cls-4{fill-rule:evenodd;}.cls-2{fill:#1d1d1b;}.cls-3{fill:#f7bf87;}.cls-4,.cls-7{fill:#fff;}.cls-5{fill:none;stroke:#fff;stroke-miterlimit:2.61;stroke-width:0.16px;}.cls-6{fill:#e12213;}</style></defs><title>club</title><path class="cls-1" d="M31.68,2.67A20.79,20.79,0,0,1,17.12.49,20.82,20.82,0,0,1,2.55,2.67a22.78,22.78,0,0,0-.17,14.9c3.38,11,14.74,16.94,14.74,16.94s11.36-6,14.73-16.94a22.78,22.78,0,0,0-.17-14.9"/><path class="cls-2" d="M11.67,8.13s-.39-1,.17-1.2.51-1.7,2.83-1.06S17.9,6.12,19,7s2,2.3,1.81,3.49c0,0,.47-.12.43.56s.51,1.32.17,2.17c0,0,.6-.08,1.89,3.2a19.06,19.06,0,0,0,3.14,5.34H11.15a4.94,4.94,0,0,1,2.92-2s.55-1,.26-1.45c-.2-.31-2.09.08-3.31-.06-.66-.07-.95-.19-.9-1,0-.31.25-.41.26-1,0-.38-.3-.06-.3-.86a2.43,2.43,0,0,1,0-.36s.6-.72.15-1.08c0,0-.75,0-.84-.46s1.07-1.72,1.21-2.13.25-.9.25-.9a1.81,1.81,0,0,1,.55-1.25.65.65,0,0,1,.25-1.08"/><path class="cls-3" d="M11.49,9.36a2.2,2.2,0,0,0-.51,1,4.22,4.22,0,0,1-.26,1.11,14.71,14.71,0,0,0-1.16,1.92c0,.21.43.34.56.34a1.4,1.4,0,0,1,.69.08c.26.13.26-.42.26-.42a2.37,2.37,0,0,1,.39.76,1.2,1.2,0,0,0-1-.21s.3.3,0,1a2.37,2.37,0,0,1,1.2.51l.05.17a8.86,8.86,0,0,0-1.42-.25s-.13.38.21.47c0,0,.78.12.43.51a1.67,1.67,0,0,0-.6.94c-.08.55,0,.85,1,.85A17.76,17.76,0,0,0,14.07,18a5.12,5.12,0,0,0,1.72-1.07A9,9,0,0,0,14.46,21a1,1,0,0,1-.39-.81,6.68,6.68,0,0,0-2.53,1.45h11S19.1,20.07,18,17.85l-.08.56A4.12,4.12,0,0,1,17,16.15L16.31,16l-.6-1h.77s.09-.34-.56-.69c0,0,.39-.25-.39-1.23,0,0,.39-.69-.47-1.54a7.14,7.14,0,0,0-3.57-2.22"/><path class="cls-2" d="M13.26,11a1.82,1.82,0,0,0-1.08-.73c-.69-.13-.94.09-.94.09a1.17,1.17,0,0,0,.68,1.53s.13-.89.35-.77a.67.67,0,0,0,.43.09s-.09-.55.56-.21"/><path class="cls-2" d="M14.55,13.8l-1.42,1.58s.64-.81-.09-1.32a2,2,0,0,1,1.51-.26"/><path class="cls-4" d="M16.69,13.29a4,4,0,0,1,.82,2.13l0-.64.95.94-1-2.56s.13.72-.78.13"/><path class="cls-4" d="M11.49,9.06s3,1.24,5,2.27a12.9,12.9,0,0,1,4,2.9L20.13,13s.65.34,1,.13S21,10.73,21,10.73s0,.64-1.33,0S13.37,6.75,12.1,7.15c-.69.21-.13,1-.13,1s-1,.25-.48.93"/><path class="cls-2" d="M29.12,28.64h.45l.17.55s0,.11,0,.17h0a1.33,1.33,0,0,1,0-.19l.17-.53h.44v1.09h-.29V29.1a1.63,1.63,0,0,1,0-.24h0l-.06.25-.19.62h-.23l-.21-.68c0-.06,0-.15-.05-.19h0s0,.18,0,.27v.6h-.28Z"/><path class="cls-2" d="M30.73,28.64h.51a.31.31,0,0,1,.36.31.3.3,0,0,1-.18.3l.25.48h-.34l-.18-.42H31v.42h-.3Zm.3.45h.15s.14,0,.14-.12,0-.12-.14-.12H31Z"/><path class="cls-3" d="M11.92,27.64s4,3.44,5.27,3.56c0,0,4.1-2.34,5-3.6Z"/><path class="cls-5" d="M29.76,5.6A20.43,20.43,0,0,1,17.12,3.42,20.46,20.46,0,0,1,4.47,5.6S2.77,10.45,5,17.53c2.78,9,12.17,13.69,12.17,13.69s9.38-4.65,12.17-13.69c2.18-7.08.47-11.93.47-11.93"/><rect class="cls-6" y="21.67" width="35" height="5.95"/><rect class="cls-5" y="21.67" width="35" height="5.95"/><path class="cls-4" d="M4.07,23.72A.73.73,0,0,0,3.33,23c-.63,0-1,.46-1,1.52s.37,1.52,1,1.52a.85.85,0,0,0,.87-.74l.83.18a1.6,1.6,0,0,1-1.76,1.23c-1.1,0-1.83-.75-1.83-2.19a1.92,1.92,0,0,1,2-2.19A1.49,1.49,0,0,1,4.9,23.55Z"/><path class="cls-4" d="M5.27,24.56a1.92,1.92,0,0,1,2-2.19,1.92,1.92,0,0,1,2,2.19,1.92,1.92,0,0,1-2,2.19,1.92,1.92,0,0,1-2-2.19m3,0c0-1.06-.41-1.52-1-1.52s-1,.46-1,1.52.41,1.52,1,1.52,1-.46,1-1.52"/><polygon class="cls-4" points="9.79 22.47 10.67 22.47 10.67 25.96 12.35 25.96 12.35 26.65 9.79 26.65 9.79 22.47"/><path class="cls-4" d="M12.55,24.56a2,2,0,1,1,3.95,0,2,2,0,1,1-3.95,0m3,0c0-1.06-.42-1.52-1-1.52s-1,.46-1,1.52.42,1.52,1,1.52,1-.46,1-1.52"/><path class="cls-4" d="M21.27,23.72a.74.74,0,0,0-.75-.68c-.62,0-1,.46-1,1.52s.37,1.52.95,1.52a.86.86,0,0,0,.88-.74l.83.18a1.6,1.6,0,0,1-1.76,1.23c-1.11,0-1.83-.75-1.83-2.19a1.92,1.92,0,0,1,2-2.19,1.48,1.48,0,0,1,1.57,1.18Z"/><path class="cls-4" d="M22.47,24.56a2,2,0,1,1,4,0,2,2,0,1,1-4,0m3,0c0-1.06-.41-1.52-1-1.52s-1,.46-1,1.52.41,1.52,1,1.52,1-.46,1-1.52"/><polygon class="cls-4" points="26.98 22.47 27.87 22.47 27.87 25.96 29.55 25.96 29.55 26.65 26.98 26.65 26.98 22.47"/><path class="cls-4" d="M29.75,24.56a2,2,0,1,1,4,0,2,2,0,1,1-4,0m3,0c0-1.06-.41-1.52-1-1.52s-1,.46-1,1.52.42,1.52,1,1.52,1-.46,1-1.52"/><rect class="cls-7" x="17.29" y="24.36" width="0.52" height="0.51"/><path class="cls-4" d="M21.59,18.28a7.17,7.17,0,0,0,2.32,2.43,9.38,9.38,0,0,0-2.32-2.43"/></svg>