<?xml version="1.0" standalone="no"?>
<!DOCTYPE svg PUBLIC "-//W3C//DTD SVG 20010904//EN"
 "http://www.w3.org/TR/2001/REC-SVG-20010904/DTD/svg10.dtd">
<svg version="1.0" xmlns="http://www.w3.org/2000/svg"
 width="3000.000000pt" height="3000.000000pt" viewBox="0 0 3000.000000 3000.000000"
 preserveAspectRatio="xMidYMid meet">
<metadata>
Created by potrace 1.14, written by Peter Selinger 2001-2017
</metadata>
<g transform="translate(0.000000,3000.000000) scale(0.100000,-0.100000)"
fill="#000000" stroke="none">
<path d="M14938 27975 c-2 -1 -75 -5 -163 -9 -88 -3 -196 -8 -240 -11 -44 -3
-109 -7 -145 -9 -36 -2 -99 -7 -140 -11 -41 -4 -93 -8 -115 -10 -111 -10 -208
-20 -290 -31 -16 -2 -86 -11 -155 -19 -69 -9 -143 -19 -165 -21 -22 -3 -51 -8
-65 -10 -14 -2 -43 -7 -65 -10 -22 -3 -51 -8 -65 -10 -28 -5 -130 -23 -175
-30 -16 -2 -64 -11 -105 -19 -41 -8 -88 -17 -105 -20 -88 -14 -391 -79 -524
-111 -36 -9 -72 -17 -80 -19 -29 -6 -394 -103 -506 -135 -234 -66 -608 -189
-845 -277 -139 -51 -523 -204 -535 -212 -5 -4 -37 -18 -70 -30 -33 -13 -98
-41 -143 -63 -46 -21 -85 -38 -87 -38 -13 0 -523 -250 -670 -328 -216 -115
-529 -293 -660 -375 -44 -28 -89 -55 -100 -61 -30 -16 -395 -254 -420 -273 -5
-4 -46 -33 -90 -63 -106 -72 -349 -248 -455 -329 -91 -69 -372 -291 -380 -301
-3 -3 -61 -52 -130 -110 -69 -57 -127 -107 -130 -110 -3 -3 -25 -23 -50 -44
-366 -319 -815 -768 -1145 -1147 -241 -275 -383 -450 -616 -759 -126 -166
-427 -595 -440 -625 -2 -6 -34 -55 -70 -110 -72 -109 -316 -514 -368 -610 -18
-33 -43 -78 -56 -100 -69 -118 -325 -624 -405 -800 -37 -80 -80 -176 -95 -212
-8 -18 -22 -48 -30 -67 -94 -212 -253 -625 -353 -916 -45 -130 -150 -464 -157
-498 -2 -12 -6 -26 -9 -30 -8 -14 -134 -483 -151 -564 -2 -9 -22 -95 -44 -190
-21 -95 -42 -189 -45 -208 -3 -19 -14 -78 -25 -130 -22 -105 -24 -116 -46
-245 -21 -119 -23 -133 -30 -180 -3 -22 -10 -62 -15 -90 -5 -27 -12 -74 -15
-104 -4 -30 -8 -61 -10 -70 -8 -42 -53 -427 -61 -521 -3 -41 -8 -88 -9 -105
-2 -16 -6 -70 -10 -120 -3 -49 -8 -108 -10 -130 -1 -22 -6 -110 -10 -195 -4
-85 -9 -184 -11 -220 -4 -88 -4 -742 1 -860 6 -180 19 -403 30 -540 13 -162
16 -197 20 -220 2 -14 6 -61 10 -105 3 -44 8 -87 10 -95 2 -8 6 -46 10 -83 3
-37 8 -77 10 -87 2 -10 6 -45 10 -77 3 -32 8 -67 10 -78 2 -11 7 -40 10 -65 3
-25 7 -56 9 -70 2 -14 8 -47 12 -75 4 -27 8 -54 9 -60 2 -5 8 -46 15 -90 7
-44 13 -87 15 -95 11 -57 38 -199 41 -220 3 -14 7 -32 9 -40 2 -8 7 -31 10
-50 3 -19 17 -87 31 -150 14 -63 28 -126 30 -140 11 -53 126 -507 140 -551 8
-25 16 -54 18 -65 19 -97 214 -697 316 -969 172 -463 461 -1109 657 -1465 16
-30 49 -91 73 -135 79 -146 92 -169 168 -300 147 -253 496 -799 574 -900 5 -5
67 -91 139 -190 116 -159 265 -356 294 -389 6 -6 26 -31 45 -56 35 -45 289
-351 299 -360 4 -3 53 -59 111 -125 215 -245 583 -623 829 -851 41 -38 87 -80
102 -94 157 -145 456 -399 668 -567 36 -29 71 -56 76 -61 36 -30 314 -236 433
-321 173 -123 449 -308 632 -421 74 -46 146 -90 160 -99 14 -9 34 -21 45 -27
11 -6 70 -40 130 -76 61 -35 139 -80 175 -100 36 -20 88 -48 115 -64 459 -256
1178 -582 1675 -759 58 -20 112 -39 120 -42 86 -32 177 -64 185 -66 6 -2 71
-23 145 -47 74 -24 140 -45 145 -46 6 -1 71 -21 145 -44 203 -61 518 -146 660
-176 14 -3 59 -14 100 -24 70 -17 487 -103 555 -114 17 -2 98 -16 180 -30 233
-39 404 -63 570 -81 28 -3 61 -7 75 -10 38 -6 138 -16 295 -29 44 -4 103 -8
130 -11 124 -11 229 -17 500 -31 143 -7 818 -7 960 0 61 3 164 8 230 11 66 4
140 8 165 10 25 2 83 7 130 10 47 3 108 9 135 11 75 8 113 12 190 19 108 11
225 25 255 30 8 1 44 6 80 10 36 4 74 9 85 11 11 3 38 7 60 9 77 10 120 17
125 20 3 2 33 6 65 10 33 3 67 8 76 11 9 3 32 7 50 9 19 3 45 7 59 10 14 2 36
7 50 10 14 2 39 7 55 10 17 3 40 7 51 9 12 2 38 7 57 10 20 3 78 15 129 26 51
10 104 22 118 24 417 84 1099 280 1590 456 133 48 498 188 545 210 11 5 108
47 215 94 276 119 617 283 860 414 75 40 481 268 520 292 8 5 83 51 165 101
589 360 1248 849 1749 1299 28 25 56 50 62 55 237 208 738 712 975 980 24 28
46 52 49 55 5 4 145 167 206 240 140 165 354 439 504 645 52 72 99 135 103
140 45 55 338 496 424 638 96 158 112 184 164 273 110 188 119 204 265 476 66
122 314 621 314 632 0 2 16 39 36 83 20 43 47 102 60 131 13 29 24 55 24 58 0
3 11 29 24 58 47 104 184 455 256 656 40 113 76 214 81 225 10 25 70 215 74
235 2 8 8 29 15 45 6 17 18 53 25 80 7 28 28 97 45 154 17 57 33 111 35 120 2
9 15 58 29 109 26 92 101 393 109 442 3 14 10 45 17 70 7 25 14 55 16 66 2 12
13 66 24 120 12 55 23 115 26 134 3 19 7 37 9 40 2 3 6 26 10 50 3 25 8 52 10
60 2 8 6 29 9 45 3 17 12 71 20 120 9 50 18 107 22 129 3 21 7 48 10 59 2 11
8 57 14 101 6 45 13 92 15 106 11 75 15 111 21 165 3 33 8 68 10 78 2 10 6 48
10 85 3 36 7 74 9 83 2 10 7 62 10 116 4 54 9 106 11 116 1 9 6 61 9 115 4 53
8 120 10 147 21 278 27 1115 11 1410 -5 83 -9 173 -11 200 -3 55 -13 181 -20
260 -10 110 -16 172 -20 213 -3 23 -7 61 -9 85 -13 115 -18 164 -22 187 -2 14
-6 48 -9 75 -3 28 -8 61 -10 75 -2 14 -11 75 -20 135 -17 117 -21 139 -30 195
-4 19 -15 87 -26 150 -39 226 -109 559 -165 780 -77 311 -82 329 -123 470 -42
140 -54 184 -57 193 -1 4 -2 8 -4 10 -1 1 -3 9 -5 17 -12 53 -133 415 -209
625 -70 194 -238 610 -313 775 -14 30 -47 105 -75 165 -100 221 -302 618 -433
850 -34 61 -73 130 -87 155 -175 314 -517 834 -782 1190 -39 52 -75 102 -81
111 -5 9 -24 34 -42 55 -17 21 -76 95 -129 164 -54 69 -101 127 -104 130 -3 3
-25 30 -50 60 -128 158 -415 482 -570 644 -505 528 -1003 972 -1560 1392 -256
193 -659 474 -680 474 -6 0 -10 4 -10 9 0 5 -9 13 -20 16 -11 3 -26 12 -33 18
-14 13 -16 14 -122 78 -38 23 -72 45 -75 48 -10 12 -486 291 -496 291 -2 0
-21 11 -42 23 -74 47 -534 282 -712 365 -36 16 -105 48 -153 71 -49 22 -91 41
-93 41 -2 0 -33 14 -70 30 -73 34 -261 112 -369 155 -38 15 -83 33 -100 40
-16 7 -46 18 -65 25 -19 7 -44 16 -55 21 -19 8 -164 61 -330 119 -327 115
-791 249 -1155 335 -85 20 -184 43 -219 52 -76 18 -46 11 -306 62 -200 38
-409 75 -485 85 -19 3 -48 7 -65 9 -16 3 -52 8 -78 12 -27 4 -57 8 -66 10 -10
2 -42 6 -72 9 -30 3 -63 8 -74 10 -11 2 -51 7 -88 11 -37 3 -76 8 -86 10 -10
2 -60 6 -111 10 -51 4 -101 8 -110 10 -10 2 -57 6 -106 10 -49 4 -107 9 -129
11 -22 2 -92 6 -155 9 -63 4 -140 9 -170 11 -66 5 -957 14 -962 9z"/>
</g>
</svg>
